<svg xmlns="http://www.w3.org/2000/svg" xmlns:v="https://svgstorm.com"
viewBox = "0 0 405 437"
width="405"
height="437">
<g fill="None" fill-opacity="0.0" stroke="#FDFDFC" stroke-opacity="1.00" stroke-width="0.3"><path d="
M 0.00 437.00 
L 405.00 437.00
L 405.00 0.00
L 0.00 0.00
L 0.00 437.00
M 278.00 65.00 
C 267.65 71.61 274.75 75.04 278.00 84.00
C 272.59 85.88 270.91 88.18 266.25 92.25 C 261.58 96.32 257.29 89.50 256.00 85.00
C 265.52 82.42 259.93 74.80 256.00 70.00
C 254.97 66.31 257.97 64.08 262.00 63.00
C 257.64 57.54 254.61 51.24 259.75 45.75 C 264.89 40.26 269.15 35.91 275.75 37.59 C 282.36 39.27 282.48 51.53 275.00 53.00
C 276.36 57.17 282.03 57.77 283.00 62.00
C 281.66 63.12 279.49 63.68 278.00 65.00
M 137.00 90.00 
C 133.18 86.86 133.57 65.13 135.00 59.00
C 135.32 57.62 135.88 56.47 136.00 55.00
C 150.64 57.67 142.35 82.69 144.00 92.00
C 141.91 90.80 138.55 91.82 137.00 90.00
M 63.00 60.00 
C 63.20 60.40 63.00 61.00 63.00 61.00
C 67.92 67.65 61.67 82.19 65.00 90.00
C 62.70 89.30 60.34 94.00 56.00 93.00
C 52.54 81.87 53.08 67.37 56.00 56.00
C 59.06 55.20 61.71 57.49 63.00 60.00
M 322.00 79.00 
C 326.51 79.63 331.37 80.22 336.00 81.00
C 339.99 81.11 345.91 82.05 351.00 82.00
C 349.49 91.52 356.00 100.65 358.00 110.00 C 360.00 119.35 367.13 129.01 366.00 139.00 C 364.87 148.99 364.30 165.24 354.25 157.75 C 344.20 150.27 339.75 148.77 329.00 145.00
C 297.48 139.46 274.06 159.98 261.00 186.00
C 260.98 187.19 263.08 193.22 256.00 192.00
C 251.45 181.99 245.43 168.16 232.00 168.00
C 232.13 165.63 230.29 164.42 229.00 163.00
C 221.30 160.97 213.33 160.64 205.00 162.00
C 202.98 162.72 200.41 165.08 198.00 166.00
C 197.03 164.15 196.21 161.76 194.00 161.00
C 200.33 152.62 198.14 140.66 203.00 132.00
C 205.87 126.27 211.75 123.18 217.75 118.75 C 223.75 114.32 230.62 108.32 239.67 112.33 C 248.72 116.34 254.79 110.79 253.00 100.00
C 259.25 99.69 264.90 101.64 271.00 102.00
C 271.68 105.94 269.97 109.21 270.00 113.00
C 269.99 113.50 270.00 114.00 270.00 114.00
C 277.82 116.25 285.74 118.33 294.00 119.00
C 294.76 112.24 295.47 104.99 298.00 99.00
C 298.57 97.90 298.74 97.51 299.00 96.00
C 298.46 93.24 297.69 87.84 298.98 82.98 C 300.26 78.11 298.03 71.21 306.00 72.00
C 301.03 79.31 318.88 74.30 322.00 79.00
M 82.00 80.00 
C 90.01 80.64 87.43 91.81 87.00 97.00 C 86.57 102.19 89.93 116.04 81.93 115.93 C 73.92 115.82 78.09 101.90 77.00 97.00 C 75.91 92.10 74.50 79.40 82.00 80.00
M 166.00 90.00 
C 165.97 91.00 166.00 92.00 166.00 93.00
C 167.22 98.55 170.24 114.77 162.00 113.00
C 161.04 112.79 159.96 113.20 159.00 113.00
C 155.79 112.33 156.25 99.65 157.00 96.00 C 157.75 92.35 153.43 80.40 160.03 80.03 C 166.64 79.66 167.63 85.30 166.00 90.00
M 120.00 82.00 
C 120.00 92.33 120.00 102.67 120.00 113.00
C 110.34 115.98 112.82 104.19 113.00 98.00 C 113.18 91.81 109.82 78.97 120.00 82.00
M 40.00 112.00 
C 38.87 113.62 34.12 113.60 33.00 112.00
C 30.74 108.78 34.10 102.08 33.00 98.00 C 31.90 93.92 33.83 87.31 33.00 83.00
C 41.48 80.41 40.15 88.14 40.00 94.00 C 39.85 99.86 40.12 106.10 40.00 112.00
M 76.00 180.00 
C 69.90 181.90 61.30 183.47 64.00 192.00
C 70.77 186.69 79.19 184.28 88.00 184.00
C 92.69 187.15 87.43 199.91 84.25 204.25 C 81.06 208.58 72.03 210.89 67.00 213.00 C 61.97 215.11 66.61 233.25 65.00 238.00
C 56.20 240.48 51.11 235.39 55.00 225.00 C 58.89 214.61 48.45 213.22 41.78 211.22 C 35.10 209.23 33.99 198.63 32.00 194.00
C 31.70 190.69 32.23 187.31 32.00 184.00
C 39.73 185.65 44.16 184.01 51.25 188.75 C 58.33 193.50 53.96 181.76 47.00 182.00
C 43.43 180.99 39.24 178.79 35.00 177.00
C 32.27 171.34 31.85 167.57 31.00 161.00 C 30.15 154.43 34.63 148.91 37.00 155.00
C 37.43 155.09 39.19 155.79 40.00 156.00
C 42.14 155.94 45.51 155.64 48.00 155.00
C 38.08 149.68 33.84 148.70 31.00 136.00 C 28.16 123.30 41.23 121.00 50.00 130.00
C 47.07 120.33 48.88 110.82 51.00 101.00
C 55.44 97.64 59.99 94.92 65.00 97.00
C 66.35 100.22 68.23 110.42 72.00 106.00
C 69.74 114.22 73.12 122.56 69.00 130.00
C 71.68 129.76 74.51 126.86 74.00 124.00
C 83.65 118.84 94.18 124.99 90.00 135.00 C 85.82 145.01 83.69 148.15 76.00 154.00
C 85.12 150.44 91.09 154.61 89.00 164.00 C 86.91 173.39 84.13 177.36 76.00 180.00
M 152.00 129.00 
C 157.32 128.47 162.33 126.26 168.00 127.00
C 168.47 133.15 165.54 138.39 164.00 144.00
C 162.67 148.37 160.56 150.00 159.00 154.00
C 162.28 153.57 165.47 152.52 169.00 153.00
C 170.55 163.17 167.85 173.91 159.00 179.00
C 158.12 179.40 156.74 179.58 156.00 180.00
C 154.79 180.68 152.61 182.67 154.00 184.00
C 150.62 182.13 144.84 184.98 145.00 189.00
C 153.85 182.02 173.30 179.65 169.02 194.02 C 164.75 208.40 158.43 212.67 145.00 215.00
C 141.37 222.46 150.25 229.96 144.07 237.07 C 137.89 244.18 133.16 233.14 135.00 228.00 C 136.84 222.86 135.31 212.45 129.00 213.00 C 122.68 213.56 118.90 206.27 114.00 204.00
C 114.00 202.33 114.00 200.67 114.00 199.00
C 112.92 194.13 111.30 189.35 112.00 184.00
C 120.66 184.04 128.77 187.09 135.00 193.00
C 140.09 181.40 127.17 183.43 120.77 178.23 C 114.37 173.03 111.03 163.37 112.00 155.00
C 121.25 155.01 130.06 159.31 136.00 166.00
C 139.17 156.59 133.14 153.76 126.31 152.69 C 119.47 151.63 117.94 144.78 114.00 141.00
C 111.74 137.68 107.80 125.87 114.08 124.08 C 120.36 122.30 123.58 128.43 130.00 130.00
C 125.44 118.66 129.23 89.11 146.00 99.00
C 143.86 106.19 151.55 106.10 150.66 111.68 C 149.78 117.26 150.20 124.58 148.00 130.00
C 149.56 130.41 150.69 129.54 152.00 129.00
M 338.00 160.00 
C 363.06 166.99 378.05 194.85 368.07 220.07 C 358.10 245.30 333.11 262.98 304.00 254.00
C 303.46 250.01 297.94 249.37 294.25 246.75 C 290.55 244.13 286.96 239.13 283.00 240.00
C 265.46 219.61 266.66 181.16 290.00 167.00
C 290.44 166.84 291.00 167.00 291.00 167.00
C 293.65 163.21 296.99 161.37 301.00 160.00
C 313.27 155.80 325.63 156.55 338.00 160.00
M 224.00 172.00 
C 246.73 176.39 255.98 209.03 240.75 225.75 C 225.52 242.47 194.34 239.69 186.08 215.92 C 177.81 192.15 197.02 166.79 224.00 172.00
M 200.00 253.00 
C 200.04 253.00 200.00 254.00 200.00 254.00
C 217.79 254.00 234.50 258.00 252.00 258.00
C 263.04 258.00 274.63 259.34 284.02 262.98 C 293.42 266.61 307.18 260.36 310.00 272.00
C 302.64 274.19 291.15 280.99 285.25 286.25 C 279.36 291.52 264.94 298.15 272.00 304.00
C 268.81 302.83 266.45 301.82 263.00 303.00
C 262.39 311.64 252.02 314.47 247.08 322.08 C 242.14 329.70 234.77 334.32 231.25 343.25 C 227.72 352.17 220.51 357.13 216.70 366.70 C 212.89 376.27 209.67 380.35 206.01 391.01 C 202.34 401.66 190.18 399.83 179.00 399.00 C 167.82 398.17 154.75 400.01 144.00 400.00
C 143.94 394.25 146.84 397.29 149.00 399.00
C 148.35 393.47 152.11 385.44 155.32 380.32 C 158.54 375.21 163.20 373.39 168.00 368.00
C 188.00 332.48 228.49 299.07 265.00 282.00
C 266.72 280.20 267.73 278.75 265.00 278.00
C 259.62 279.94 254.42 281.97 249.00 284.00
C 247.54 284.82 242.65 287.02 243.00 290.00
C 237.03 289.10 229.06 293.22 226.00 299.00
C 217.65 295.32 210.93 305.55 202.92 308.92 C 194.92 312.30 187.41 319.63 180.92 323.92 C 174.42 328.21 165.51 331.39 160.08 338.08 C 154.66 344.78 142.30 346.75 141.00 356.00
C 134.77 357.80 131.27 362.21 126.30 366.30 C 121.33 370.40 119.44 375.83 112.77 378.77 C 106.10 381.71 105.64 386.52 100.30 391.30 C 94.96 396.08 87.54 394.65 80.93 392.07 C 74.32 389.50 66.54 387.99 60.00 391.00
C 56.10 382.45 46.99 376.25 41.00 369.00
C 48.85 357.44 63.79 350.60 76.08 341.08 C 88.38 331.56 102.71 324.19 116.08 316.08 C 129.45 307.97 144.47 300.54 159.02 294.02 C 173.58 287.51 190.65 279.10 208.00 278.00
C 214.92 275.75 222.55 274.56 229.00 272.00
C 234.77 269.71 241.12 266.93 248.00 267.00
C 228.41 264.11 207.53 270.80 188.00 269.00
C 184.51 269.51 181.49 270.64 178.00 271.00
C 172.29 272.95 167.14 278.17 161.00 278.00 C 154.86 277.83 145.66 276.25 139.78 279.78 C 133.89 283.31 123.70 278.27 121.00 286.00
C 104.19 285.20 89.56 294.51 74.33 298.33 C 59.10 302.15 48.13 315.56 32.00 314.00
C 34.28 305.27 29.59 290.12 33.00 280.00
C 33.09 278.46 33.86 276.92 34.00 276.00
C 34.00 274.67 34.00 273.33 34.00 272.00
C 34.00 271.50 34.05 270.50 34.00 270.00
C 33.03 259.94 48.96 263.41 55.67 260.67 C 62.39 257.93 75.39 257.38 82.00 258.00
C 83.32 257.87 84.68 258.12 86.00 258.00
C 89.82 256.43 96.96 252.14 105.00 252.00 C 113.05 251.86 123.84 252.66 132.00 251.00 C 140.16 249.34 149.22 250.35 158.00 250.00 C 166.78 249.65 176.50 250.22 185.07 250.93 C 193.64 251.63 202.79 252.02 211.00 251.00
C 208.51 254.20 203.65 252.63 200.00 253.00
M 318.00 276.00 
C 317.83 276.07 318.00 277.00 318.00 277.00
C 322.65 283.38 314.64 294.96 314.67 303.67 C 314.70 312.39 311.44 325.21 311.00 335.00 C 310.56 344.79 307.24 356.35 308.00 367.00 C 308.76 377.65 308.70 390.04 306.00 400.00
C 297.47 397.70 285.70 399.73 277.00 399.00 C 268.30 398.27 254.11 403.78 260.00 391.00
C 257.45 390.11 255.05 389.49 256.00 386.00
C 264.26 389.31 264.36 375.99 266.97 369.97 C 269.59 363.96 270.92 356.42 274.33 349.33 C 277.74 342.23 281.64 335.98 283.32 328.32 C 285.00 320.67 290.44 315.61 293.75 308.75 C 297.07 301.90 301.75 295.97 303.00 288.00
C 305.58 286.82 311.15 283.75 310.92 278.92 C 310.70 274.10 321.19 272.23 318.00 276.00
M 352.00 302.00 
C 351.98 302.50 352.00 303.00 352.00 303.00
C 358.77 305.51 358.77 315.72 367.00 313.00
C 363.30 321.38 374.87 325.63 379.25 333.75 C 383.64 341.86 382.27 355.74 375.23 362.23 C 368.19 368.72 363.76 377.21 353.00 376.00
C 352.59 366.76 345.67 354.41 343.23 343.77 C 340.79 333.13 334.95 316.96 333.01 306.99 C 331.07 297.03 318.74 276.72 331.22 277.78 C 343.70 278.84 344.44 294.76 352.00 302.00 Z"/>
</g>
<g fill="None" fill-opacity="0.0" stroke="#E4F6D6" stroke-opacity="1.00" stroke-width="0.3"><path d="
M 256.00 70.00 
C 255.91 65.43 264.22 64.42 263.64 60.30 C 263.06 56.19 255.49 54.11 257.00 49.00
C 262.30 46.87 266.28 41.41 272.00 40.00
C 275.77 38.52 282.60 45.38 276.00 50.00
C 274.76 50.87 273.29 51.23 272.00 52.00
C 272.34 56.89 279.37 60.35 278.00 65.00
C 279.49 63.68 281.66 63.12 283.00 62.00
C 282.03 57.77 276.36 57.17 275.00 53.00
C 282.48 51.53 282.36 39.27 275.75 37.59 C 269.15 35.91 264.89 40.26 259.75 45.75 C 254.61 51.24 257.64 57.54 262.00 63.00
C 257.97 64.08 254.97 66.31 256.00 70.00 Z"/>
</g>
<g fill="None" fill-opacity="0.0" stroke="#ACCA96" stroke-opacity="1.00" stroke-width="0.3"><path d="
M 272.00 40.00 
C 277.20 40.23 278.78 46.62 276.00 50.00
C 282.60 45.38 275.77 38.52 272.00 40.00 Z"/>
</g>
<g fill="None" fill-opacity="0.0" stroke="#7BBD53" stroke-opacity="1.00" stroke-width="0.3"><path d="
M 256.00 70.00 
C 259.93 74.80 265.52 82.42 256.00 85.00
C 257.29 89.50 261.58 96.32 266.25 92.25 C 270.91 88.18 272.59 85.88 278.00 84.00
C 274.75 75.04 267.65 71.61 278.00 65.00
C 279.37 60.35 272.34 56.89 272.00 52.00
C 273.29 51.23 274.76 50.87 276.00 50.00
C 278.78 46.62 277.20 40.23 272.00 40.00
C 266.28 41.41 262.30 46.87 257.00 49.00
C 255.49 54.11 263.06 56.19 263.64 60.30 C 264.22 64.42 255.91 65.43 256.00 70.00 Z"/>
</g>
<g fill="None" fill-opacity="0.0" stroke="#F1FDE5" stroke-opacity="1.00" stroke-width="0.3"><path d="
M 135.00 59.00 
C 137.64 55.21 144.29 59.44 143.00 64.00 C 141.70 68.56 147.15 94.29 137.00 90.00
C 138.55 91.82 141.91 90.80 144.00 92.00
C 142.35 82.69 150.64 57.67 136.00 55.00
C 135.88 56.47 135.32 57.62 135.00 59.00 Z"/>
</g>
<g fill="None" fill-opacity="0.0" stroke="#E6F8DA" stroke-opacity="1.00" stroke-width="0.3"><path d="
M 63.00 61.00 
C 63.00 65.18 63.43 72.10 63.00 76.00 C 62.57 79.90 65.05 87.39 61.00 89.00
C 59.56 89.57 57.49 88.57 56.00 89.00
C 56.00 79.33 56.00 69.67 56.00 60.00
C 57.22 58.23 61.40 58.71 63.00 60.00
C 61.71 57.49 59.06 55.20 56.00 56.00
C 53.08 67.37 52.54 81.87 56.00 93.00
C 60.34 94.00 62.70 89.30 65.00 90.00
C 61.67 82.19 67.92 67.65 63.00 61.00 Z"/>
</g>
<g fill="None" fill-opacity="0.0" stroke="#BBDBA8" stroke-opacity="1.00" stroke-width="0.3"><path d="
M 135.00 59.00 
C 133.57 65.13 133.18 86.86 137.00 90.00
C 147.15 94.29 141.70 68.56 143.00 64.00 C 144.29 59.44 137.64 55.21 135.00 59.00
M 142.00 60.00 
C 142.00 69.67 142.00 79.33 142.00 89.00
C 133.52 91.48 135.82 80.44 136.00 75.00 C 136.18 69.56 133.01 57.50 142.00 60.00 Z"/>
</g>
<g fill="None" fill-opacity="0.0" stroke="#A8CA94" stroke-opacity="1.00" stroke-width="0.3"><path d="
M 56.00 60.00 
C 58.00 60.00 60.00 60.00 62.00 60.00
C 61.37 69.59 63.28 79.85 61.00 89.00
C 65.05 87.39 62.57 79.90 63.00 76.00 C 63.43 72.10 63.00 65.18 63.00 61.00
C 63.00 61.00 63.20 60.40 63.00 60.00
C 61.40 58.71 57.22 58.23 56.00 60.00 Z"/>
</g>
<g fill="None" fill-opacity="0.0" stroke="#78B851" stroke-opacity="1.00" stroke-width="0.3"><path d="
M 61.00 89.00 
C 63.28 79.85 61.37 69.59 62.00 60.00
C 60.00 60.00 58.00 60.00 56.00 60.00
C 56.00 69.67 56.00 79.33 56.00 89.00
C 57.49 88.57 59.56 89.57 61.00 89.00 Z"/>
</g>
<g fill="None" fill-opacity="0.0" stroke="#79BA52" stroke-opacity="1.00" stroke-width="0.3"><path d="
M 142.00 60.00 
C 133.01 57.50 136.18 69.56 136.00 75.00 C 135.82 80.44 133.52 91.48 142.00 89.00
C 142.00 79.33 142.00 69.67 142.00 60.00 Z"/>
</g>
<g fill="None" fill-opacity="0.0" stroke="#E6F8DA" stroke-opacity="1.00" stroke-width="0.3"><path d="
M 299.00 96.00 
C 300.07 89.68 300.58 83.25 302.00 77.00
C 308.93 76.60 315.10 79.18 322.00 79.00
C 318.88 74.30 301.03 79.31 306.00 72.00
C 298.03 71.21 300.26 78.11 298.98 82.98 C 297.69 87.84 298.46 93.24 299.00 96.00 Z"/>
</g>
<g fill="None" fill-opacity="0.0" stroke="#78BE4D" stroke-opacity="1.00" stroke-width="0.3"><path d="
M 299.00 96.00 
C 298.74 97.51 298.57 97.90 298.00 99.00
C 296.22 106.13 297.15 113.94 295.00 121.00
C 288.36 121.58 282.61 118.66 276.00 119.00
C 269.83 118.40 269.35 118.42 270.00 113.00
C 269.97 109.21 271.68 105.94 271.00 102.00
C 264.90 101.64 259.25 99.69 253.00 100.00
C 254.79 110.79 248.72 116.34 239.67 112.33 C 230.62 108.32 223.75 114.32 217.75 118.75 C 211.75 123.18 205.87 126.27 203.00 132.00
C 200.24 141.90 201.03 152.88 199.00 163.00
C 201.27 163.59 202.90 162.15 205.00 162.00
C 213.33 160.64 221.30 160.97 229.00 163.00
C 242.02 166.43 253.61 177.08 258.00 190.00
C 260.46 189.70 259.18 186.69 261.00 186.00
C 274.06 159.98 297.48 139.46 329.00 145.00
C 340.15 146.96 350.95 150.82 360.00 158.00
C 370.80 131.61 352.96 107.86 347.00 83.00
C 343.33 82.76 338.96 82.56 336.00 81.00
C 331.37 80.22 326.51 79.63 322.00 79.00
C 315.10 79.18 308.93 76.60 302.00 77.00
C 300.58 83.25 300.07 89.68 299.00 96.00
M 344.00 123.00 
C 344.82 125.24 345.34 127.67 346.00 130.00
C 336.05 129.83 325.73 128.39 317.00 125.00
C 305.30 121.64 315.05 110.81 313.99 100.99 C 312.94 91.18 331.80 90.75 335.30 97.70 C 338.80 104.64 341.25 115.45 344.00 123.00
M 219.00 140.00 
C 217.65 139.58 215.24 140.26 215.00 138.00
C 216.88 137.32 218.32 135.98 220.00 135.00
C 227.28 130.58 232.74 125.04 242.02 127.98 C 251.31 130.91 260.33 130.89 270.00 132.00
C 269.35 136.99 268.88 142.04 268.00 147.00
C 251.38 145.84 235.56 141.50 219.00 140.00 Z"/>
</g>
<g fill="None" fill-opacity="0.0" stroke="#EDFDE3" stroke-opacity="1.00" stroke-width="0.3"><path d="
M 82.00 80.00 
C 74.50 79.40 75.91 92.10 77.00 97.00 C 78.09 101.90 73.92 115.82 81.93 115.93 C 89.93 116.04 86.57 102.19 87.00 97.00 C 87.43 91.81 90.01 80.64 82.00 80.00
M 85.00 82.00 
C 89.37 85.00 83.77 95.60 86.00 100.00 C 88.23 104.40 85.12 116.56 79.33 112.67 C 73.54 108.78 80.39 99.50 78.00 95.00 C 75.61 90.50 78.45 77.49 85.00 82.00 Z"/>
</g>
<g fill="None" fill-opacity="0.0" stroke="#ECFCDC" stroke-opacity="1.00" stroke-width="0.3"><path d="
M 159.00 113.00 
C 156.82 111.82 157.06 101.23 158.00 98.00 C 158.94 94.77 154.41 86.08 158.78 82.78 C 163.14 79.47 166.14 84.70 166.00 90.00
C 167.63 85.30 166.64 79.66 160.03 80.03 C 153.43 80.40 157.75 92.35 157.00 96.00 C 156.25 99.65 155.79 112.33 159.00 113.00 Z"/>
</g>
<g fill="None" fill-opacity="0.0" stroke="#E8FADA" stroke-opacity="1.00" stroke-width="0.3"><path d="
M 336.00 81.00 
C 338.96 82.56 343.33 82.76 347.00 83.00
C 352.96 107.86 370.80 131.61 360.00 158.00
C 350.95 150.82 340.15 146.96 329.00 145.00
C 339.75 148.77 344.20 150.27 354.25 157.75 C 364.30 165.24 364.87 148.99 366.00 139.00 C 367.13 129.01 360.00 119.35 358.00 110.00 C 356.00 100.65 349.49 91.52 351.00 82.00
C 345.91 82.05 339.99 81.11 336.00 81.00 Z"/>
</g>
<g fill="None" fill-opacity="0.0" stroke="#B8DB9E" stroke-opacity="1.00" stroke-width="0.3"><path d="
M 85.00 82.00 
C 78.45 77.49 75.61 90.50 78.00 95.00 C 80.39 99.50 73.54 108.78 79.33 112.67 C 85.12 116.56 88.23 104.40 86.00 100.00 C 83.77 95.60 89.37 85.00 85.00 82.00
M 85.00 83.00 
C 85.00 92.67 85.00 102.33 85.00 112.00
C 76.52 114.48 78.82 103.44 79.00 98.00 C 79.18 92.56 76.01 80.50 85.00 83.00 Z"/>
</g>
<g fill="None" fill-opacity="0.0" stroke="#81BC5B" stroke-opacity="1.00" stroke-width="0.3"><path d="
M 120.00 82.00 
C 109.82 78.97 113.18 91.81 113.00 98.00 C 112.82 104.19 110.34 115.98 120.00 113.00
C 120.00 102.67 120.00 92.33 120.00 82.00 Z"/>
</g>
<g fill="None" fill-opacity="0.0" stroke="#B4D89A" stroke-opacity="1.00" stroke-width="0.3"><path d="
M 159.00 113.00 
C 159.96 113.20 161.04 112.79 162.00 113.00
C 168.78 112.88 166.00 98.15 166.00 93.00
C 166.00 92.00 165.97 91.00 166.00 90.00
C 166.14 84.70 163.14 79.47 158.78 82.78 C 154.41 86.08 158.94 94.77 158.00 98.00 C 157.06 101.23 156.82 111.82 159.00 113.00
M 165.00 112.00 
C 157.09 114.08 159.07 106.53 159.00 101.00 C 158.93 95.47 159.05 88.65 159.00 83.00
C 171.14 83.82 162.32 103.25 165.00 112.00 Z"/>
</g>
<g fill="None" fill-opacity="0.0" stroke="#7FB858" stroke-opacity="1.00" stroke-width="0.3"><path d="
M 33.00 112.00 
C 35.33 112.00 37.67 112.00 40.00 112.00
C 40.12 106.10 39.85 99.86 40.00 94.00 C 40.15 88.14 41.48 80.41 33.00 83.00
C 33.83 87.31 31.90 93.92 33.00 98.00 C 34.10 102.08 30.74 108.78 33.00 112.00 Z"/>
</g>
<g fill="None" fill-opacity="0.0" stroke="#7AB852" stroke-opacity="1.00" stroke-width="0.3"><path d="
M 85.00 83.00 
C 76.01 80.50 79.18 92.56 79.00 98.00 C 78.82 103.44 76.52 114.48 85.00 112.00
C 85.00 102.33 85.00 92.67 85.00 83.00 Z"/>
</g>
<g fill="None" fill-opacity="0.0" stroke="#79B951" stroke-opacity="1.00" stroke-width="0.3"><path d="
M 165.00 112.00 
C 162.32 103.25 171.14 83.82 159.00 83.00
C 159.05 88.65 158.93 95.47 159.00 101.00 C 159.07 106.53 157.09 114.08 165.00 112.00 Z"/>
</g>
<g fill="None" fill-opacity="0.0" stroke="#F1FDE8" stroke-opacity="1.00" stroke-width="0.3"><path d="
M 162.00 113.00 
C 170.24 114.77 167.22 98.55 166.00 93.00
C 166.00 98.15 168.78 112.88 162.00 113.00 Z"/>
</g>
<g fill="None" fill-opacity="0.0" stroke="#FAFDF6" stroke-opacity="1.00" stroke-width="0.3"><path d="
M 317.00 125.00 
C 320.57 124.99 324.16 123.12 328.00 124.00
C 328.90 129.48 338.62 126.21 343.00 129.00
C 343.47 127.12 341.94 124.07 344.00 123.00
C 341.25 115.45 338.80 104.64 335.30 97.70 C 331.80 90.75 312.94 91.18 313.99 100.99 C 315.05 110.81 305.30 121.64 317.00 125.00 Z"/>
</g>
<g fill="None" fill-opacity="0.0" stroke="#E7F8D9" stroke-opacity="1.00" stroke-width="0.3"><path d="
M 40.00 156.00 
C 46.18 157.61 50.77 161.51 56.00 165.00
C 60.25 152.11 47.42 154.69 40.75 149.25 C 34.09 143.80 32.11 135.27 32.00 127.00
C 41.44 125.89 49.66 130.44 56.00 137.00
C 56.35 129.34 49.32 123.88 50.00 116.00 C 50.68 108.12 53.42 102.57 59.00 97.00
C 65.89 101.82 67.69 108.07 69.00 116.00 C 70.31 123.93 61.65 131.19 64.00 138.00
C 67.79 128.97 78.96 126.60 88.00 127.00
C 88.41 135.43 84.81 143.83 78.25 149.25 C 71.68 154.67 57.82 152.48 64.00 165.00
C 70.49 158.64 78.91 154.97 88.00 155.00
C 88.58 165.02 84.18 174.79 76.00 180.00
C 84.13 177.36 86.91 173.39 89.00 164.00 C 91.09 154.61 85.12 150.44 76.00 154.00
C 83.69 148.15 85.82 145.01 90.00 135.00 C 94.18 124.99 83.65 118.84 74.00 124.00
C 74.51 126.86 71.68 129.76 69.00 130.00
C 73.12 122.56 69.74 114.22 72.00 106.00
C 68.23 110.42 66.35 100.22 65.00 97.00
C 59.99 94.92 55.44 97.64 51.00 101.00
C 48.88 110.82 47.07 120.33 50.00 130.00
C 41.23 121.00 28.16 123.30 31.00 136.00 C 33.84 148.70 38.08 149.68 48.00 155.00
C 45.51 155.64 42.14 155.94 40.00 156.00
M 75.00 155.00 
C 72.64 157.42 64.69 160.74 65.00 155.00
C 68.35 155.93 72.70 153.56 75.00 155.00
M 55.00 162.00 
C 44.51 159.21 56.66 150.10 55.00 162.00 Z"/>
</g>
<g fill="None" fill-opacity="0.0" stroke="#E3F7D4" stroke-opacity="1.00" stroke-width="0.3"><path d="
M 114.00 141.00 
C 112.14 136.83 111.82 131.78 112.00 127.00
C 121.51 125.75 129.41 130.86 136.00 137.00
C 134.92 129.82 129.46 123.92 130.00 116.00 C 130.54 108.08 133.91 103.19 138.00 97.00
C 145.48 100.38 147.14 107.34 148.99 115.01 C 150.84 122.68 140.57 130.96 144.00 138.00
C 144.59 133.71 149.87 132.09 152.00 129.00
C 150.69 129.54 149.56 130.41 148.00 130.00
C 150.20 124.58 149.78 117.26 150.66 111.68 C 151.55 106.10 143.86 106.19 146.00 99.00
C 129.23 89.11 125.44 118.66 130.00 130.00
C 123.58 128.43 120.36 122.30 114.08 124.08 C 107.80 125.87 111.74 137.68 114.00 141.00 Z"/>
</g>
<g fill="None" fill-opacity="0.0" stroke="#79BE4F" stroke-opacity="1.00" stroke-width="0.3"><path d="
M 40.00 156.00 
C 39.19 155.79 37.43 155.09 37.00 155.00
C 35.40 154.67 33.62 155.25 32.00 155.00
C 31.52 166.04 36.49 177.78 47.00 182.00
C 53.96 181.76 58.33 193.50 51.25 188.75 C 44.16 184.01 39.73 185.65 32.00 184.00
C 32.23 187.31 31.70 190.69 32.00 194.00
C 34.51 203.68 46.65 213.01 57.00 212.00
C 59.33 219.87 51.04 238.37 64.00 237.00
C 64.00 228.67 64.00 220.33 64.00 212.00
C 78.43 212.12 89.42 198.01 88.00 184.00
C 79.19 184.28 70.77 186.69 64.00 192.00
C 61.30 183.47 69.90 181.90 76.00 180.00
C 84.18 174.79 88.58 165.02 88.00 155.00
C 78.91 154.97 70.49 158.64 64.00 165.00
C 57.82 152.48 71.68 154.67 78.25 149.25 C 84.81 143.83 88.41 135.43 88.00 127.00
C 78.96 126.60 67.79 128.97 64.00 138.00
C 61.65 131.19 70.31 123.93 69.00 116.00 C 67.69 108.07 65.89 101.82 59.00 97.00
C 53.42 102.57 50.68 108.12 50.00 116.00 C 49.32 123.88 56.35 129.34 56.00 137.00
C 49.66 130.44 41.44 125.89 32.00 127.00
C 32.11 135.27 34.09 143.80 40.75 149.25 C 47.42 154.69 60.25 152.11 56.00 165.00
C 50.77 161.51 46.18 157.61 40.00 156.00 Z"/>
</g>
<g fill="None" fill-opacity="0.0" stroke="#78BD4E" stroke-opacity="1.00" stroke-width="0.3"><path d="
M 114.00 141.00 
C 117.94 144.78 119.47 151.63 126.31 152.69 C 133.14 153.76 139.17 156.59 136.00 166.00
C 130.06 159.31 121.25 155.01 112.00 155.00
C 111.03 163.37 114.37 173.03 120.77 178.23 C 127.17 183.43 140.09 181.40 135.00 193.00
C 128.77 187.09 120.66 184.04 112.00 184.00
C 111.30 189.35 112.92 194.13 114.00 199.00
C 117.46 207.81 125.61 209.53 134.01 211.99 C 142.40 214.45 129.67 239.28 144.00 236.00
C 144.00 228.00 144.00 220.00 144.00 212.00
C 158.75 212.16 169.04 198.20 168.00 184.00
C 158.91 183.60 151.14 187.99 144.00 193.00
C 144.00 189.67 144.00 186.33 144.00 183.00
C 148.34 183.23 152.01 181.07 156.00 180.00
C 163.55 175.52 167.81 164.65 167.00 156.00
C 163.73 155.30 161.23 157.43 158.00 157.00
C 151.80 158.15 147.42 161.30 143.00 166.00
C 143.00 162.33 143.00 158.67 143.00 155.00
C 151.18 154.09 158.36 150.27 164.00 144.00
C 165.54 138.39 168.47 133.15 168.00 127.00
C 162.33 126.26 157.32 128.47 152.00 129.00
C 149.87 132.09 144.59 133.71 144.00 138.00
C 140.57 130.96 150.84 122.68 148.99 115.01 C 147.14 107.34 145.48 100.38 138.00 97.00
C 133.91 103.19 130.54 108.08 130.00 116.00 C 129.46 123.92 134.92 129.82 136.00 137.00
C 129.41 130.86 121.51 125.75 112.00 127.00
C 111.82 131.78 112.14 136.83 114.00 141.00 Z"/>
</g>
<g fill="None" fill-opacity="0.0" stroke="#EBFADD" stroke-opacity="1.00" stroke-width="0.3"><path d="
M 270.00 114.00 
C 269.48 117.81 273.49 118.52 276.00 119.00
C 282.61 118.66 288.36 121.58 295.00 121.00
C 297.15 113.94 296.22 106.13 298.00 99.00
C 295.47 104.99 294.76 112.24 294.00 119.00
C 285.74 118.33 277.82 116.25 270.00 114.00 Z"/>
</g>
<g fill="None" fill-opacity="0.0" stroke="#B5CAA9" stroke-opacity="1.00" stroke-width="0.3"><path d="
M 40.00 112.00 
C 37.67 112.00 35.33 112.00 33.00 112.00
C 34.12 113.60 38.87 113.62 40.00 112.00 Z"/>
</g>
<g fill="None" fill-opacity="0.0" stroke="#AFD194" stroke-opacity="1.00" stroke-width="0.3"><path d="
M 276.00 119.00 
C 273.49 118.52 269.48 117.81 270.00 114.00
C 270.00 114.00 269.99 113.50 270.00 113.00
C 269.35 118.42 269.83 118.40 276.00 119.00 Z"/>
</g>
<g fill="None" fill-opacity="0.0" stroke="#E3F8D6" stroke-opacity="1.00" stroke-width="0.3"><path d="
M 317.00 125.00 
C 325.73 128.39 336.05 129.83 346.00 130.00
C 345.34 127.67 344.82 125.24 344.00 123.00
C 341.94 124.07 343.47 127.12 343.00 129.00
C 338.62 126.21 328.90 129.48 328.00 124.00
C 324.16 123.12 320.57 124.99 317.00 125.00 Z"/>
</g>
<g fill="None" fill-opacity="0.0" stroke="#F6FCF1" stroke-opacity="1.00" stroke-width="0.3"><path d="
M 220.00 135.00 
C 218.76 136.36 217.27 138.38 219.00 140.00
C 235.56 141.50 251.38 145.84 268.00 147.00
C 268.88 142.04 269.35 136.99 270.00 132.00
C 260.33 130.89 251.31 130.91 242.02 127.98 C 232.74 125.04 227.28 130.58 220.00 135.00 Z"/>
</g>
<g fill="None" fill-opacity="0.0" stroke="#E2F5D0" stroke-opacity="1.00" stroke-width="0.3"><path d="
M 205.00 162.00 
C 202.90 162.15 201.27 163.59 199.00 163.00
C 201.03 152.88 200.24 141.90 203.00 132.00
C 198.14 140.66 200.33 152.62 194.00 161.00
C 196.21 161.76 197.03 164.15 198.00 166.00
C 200.41 165.08 202.98 162.72 205.00 162.00 Z"/>
</g>
<g fill="None" fill-opacity="0.0" stroke="#D2F9AE" stroke-opacity="1.00" stroke-width="0.3"><path d="
M 219.00 140.00 
C 217.27 138.38 218.76 136.36 220.00 135.00
C 218.32 135.98 216.88 137.32 215.00 138.00
C 215.24 140.26 217.65 139.58 219.00 140.00 Z"/>
</g>
<g fill="None" fill-opacity="0.0" stroke="#EBFAE0" stroke-opacity="1.00" stroke-width="0.3"><path d="
M 158.00 157.00 
C 160.88 156.13 164.32 154.13 168.00 155.00
C 170.08 164.82 165.43 172.41 159.00 179.00
C 167.85 173.91 170.55 163.17 169.00 153.00
C 165.47 152.52 162.28 153.57 159.00 154.00
C 160.56 150.00 162.67 148.37 164.00 144.00
C 158.36 150.27 151.18 154.09 143.00 155.00
C 143.00 158.67 143.00 162.33 143.00 166.00
C 147.42 161.30 151.80 158.15 158.00 157.00 Z"/>
</g>
<g fill="None" fill-opacity="0.0" stroke="#E8F8DA" stroke-opacity="1.00" stroke-width="0.3"><path d="
M 47.00 182.00 
C 36.49 177.78 31.52 166.04 32.00 155.00
C 33.62 155.25 35.40 154.67 37.00 155.00
C 34.63 148.91 30.15 154.43 31.00 161.00 C 31.85 167.57 32.27 171.34 35.00 177.00
C 39.24 178.79 43.43 180.99 47.00 182.00 Z"/>
</g>
<g fill="None" fill-opacity="0.0" stroke="#F7FEFB" stroke-opacity="1.00" stroke-width="0.3"><path d="
M 75.00 155.00 
C 72.70 153.56 68.35 155.93 65.00 155.00
C 64.69 160.74 72.64 157.42 75.00 155.00 Z"/>
</g>
<g fill="None" fill-opacity="0.0" stroke="#FBF8F9" stroke-opacity="1.00" stroke-width="0.3"><path d="
M 55.00 162.00 
C 56.66 150.10 44.51 159.21 55.00 162.00 Z"/>
</g>
<g fill="None" fill-opacity="0.0" stroke="#BBDEA6" stroke-opacity="1.00" stroke-width="0.3"><path d="
M 158.00 157.00 
C 161.23 157.43 163.73 155.30 167.00 156.00
C 167.81 164.65 163.55 175.52 156.00 180.00
C 156.74 179.58 158.12 179.40 159.00 179.00
C 165.43 172.41 170.08 164.82 168.00 155.00
C 164.32 154.13 160.88 156.13 158.00 157.00 Z"/>
</g>
<g fill="None" fill-opacity="0.0" stroke="#75BD49" stroke-opacity="1.00" stroke-width="0.3"><path d="
M 301.00 160.00 
C 300.59 160.25 299.42 161.63 299.00 162.00
C 294.38 166.07 288.38 169.26 284.00 174.00
C 271.68 189.61 269.22 211.26 279.00 229.00
C 283.20 234.76 288.50 240.53 294.00 245.00
C 320.68 262.21 365.60 248.27 368.00 213.00
C 368.35 207.81 368.28 202.20 368.00 197.00
C 367.11 180.52 351.93 166.44 338.00 160.00
C 325.63 156.55 313.27 155.80 301.00 160.00
M 326.00 183.00 
C 352.25 188.82 343.88 231.18 316.78 225.22 C 289.68 219.26 299.97 177.23 326.00 183.00 Z"/>
</g>
<g fill="None" fill-opacity="0.0" stroke="#F0FADF" stroke-opacity="1.00" stroke-width="0.3"><path d="
M 291.00 167.00 
C 293.67 164.96 296.31 163.58 299.00 162.00
C 299.42 161.63 300.59 160.25 301.00 160.00
C 296.99 161.37 293.65 163.21 291.00 167.00 Z"/>
</g>
<g fill="None" fill-opacity="0.0" stroke="#E6F8DB" stroke-opacity="1.00" stroke-width="0.3"><path d="
M 368.00 197.00 
C 368.84 202.16 368.92 207.89 368.00 213.00
C 365.60 248.27 320.68 262.21 294.00 245.00
C 287.70 240.94 282.57 235.48 279.00 229.00
C 269.22 211.26 271.68 189.61 284.00 174.00
C 285.89 171.61 288.29 169.45 290.00 167.00
C 266.66 181.16 265.46 219.61 283.00 240.00
C 286.96 239.13 290.55 244.13 294.25 246.75 C 297.94 249.37 303.46 250.01 304.00 254.00
C 333.11 262.98 358.10 245.30 368.07 220.07 C 378.05 194.85 363.06 166.99 338.00 160.00
C 351.93 166.44 367.11 180.52 368.00 197.00 Z"/>
</g>
<g fill="None" fill-opacity="0.0" stroke="#B6D49F" stroke-opacity="1.00" stroke-width="0.3"><path d="
M 291.00 167.00 
C 291.00 167.00 290.44 166.84 290.00 167.00
C 288.29 169.45 285.89 171.61 284.00 174.00
C 288.38 169.26 294.38 166.07 299.00 162.00
C 296.31 163.58 293.67 164.96 291.00 167.00 Z"/>
</g>
<g fill="None" fill-opacity="0.0" stroke="#E8F9DE" stroke-opacity="1.00" stroke-width="0.3"><path d="
M 261.00 186.00 
C 259.18 186.69 260.46 189.70 258.00 190.00
C 253.61 177.08 242.02 166.43 229.00 163.00
C 230.29 164.42 232.13 165.63 232.00 168.00
C 245.43 168.16 251.45 181.99 256.00 192.00
C 263.08 193.22 260.98 187.19 261.00 186.00 Z"/>
</g>
<g fill="None" fill-opacity="0.0" stroke="#78BE4D" stroke-opacity="1.00" stroke-width="0.3"><path d="
M 224.00 172.00 
C 197.02 166.79 177.81 192.15 186.08 215.92 C 194.34 239.69 225.52 242.47 240.75 225.75 C 255.98 209.03 246.73 176.39 224.00 172.00
M 220.00 189.00 
C 236.51 192.13 230.43 221.02 213.33 216.67 C 196.23 212.32 201.91 185.57 220.00 189.00 Z"/>
</g>
<g fill="None" fill-opacity="0.0" stroke="#EAFADB" stroke-opacity="1.00" stroke-width="0.3"><path d="
M 114.00 199.00 
C 114.00 200.67 114.00 202.33 114.00 204.00
C 118.90 206.27 122.68 213.56 129.00 213.00 C 135.31 212.45 136.84 222.86 135.00 228.00 C 133.16 233.14 137.89 244.18 144.07 237.07 C 150.25 229.96 141.37 222.46 145.00 215.00
C 158.43 212.67 164.75 208.40 169.02 194.02 C 173.30 179.65 153.85 182.02 145.00 189.00
C 144.84 184.98 150.62 182.13 154.00 184.00
C 152.61 182.67 154.79 180.68 156.00 180.00
C 152.01 181.07 148.34 183.23 144.00 183.00
C 144.00 186.33 144.00 189.67 144.00 193.00
C 151.14 187.99 158.91 183.60 168.00 184.00
C 169.04 198.20 158.75 212.16 144.00 212.00
C 144.00 220.00 144.00 228.00 144.00 236.00
C 129.67 239.28 142.40 214.45 134.01 211.99 C 125.61 209.53 117.46 207.81 114.00 199.00 Z"/>
</g>
<g fill="None" fill-opacity="0.0" stroke="#F3FBEC" stroke-opacity="1.00" stroke-width="0.3"><path d="
M 326.00 183.00 
C 299.97 177.23 289.68 219.26 316.78 225.22 C 343.88 231.18 352.25 188.82 326.00 183.00
M 326.00 192.00 
C 339.89 196.22 332.00 221.00 317.78 215.22 C 303.56 209.44 310.97 187.44 326.00 192.00 Z"/>
</g>
<g fill="None" fill-opacity="0.0" stroke="#E7F9D8" stroke-opacity="1.00" stroke-width="0.3"><path d="
M 32.00 194.00 
C 33.99 198.63 35.10 209.23 41.78 211.22 C 48.45 213.22 58.89 214.61 55.00 225.00 C 51.11 235.39 56.20 240.48 65.00 238.00
C 66.61 233.25 61.97 215.11 67.00 213.00 C 72.03 210.89 81.06 208.58 84.25 204.25 C 87.43 199.91 92.69 187.15 88.00 184.00
C 89.42 198.01 78.43 212.12 64.00 212.00
C 64.00 220.33 64.00 228.67 64.00 237.00
C 51.04 238.37 59.33 219.87 57.00 212.00
C 46.65 213.01 34.51 203.68 32.00 194.00 Z"/>
</g>
<g fill="None" fill-opacity="0.0" stroke="#F0FAEA" stroke-opacity="1.00" stroke-width="0.3"><path d="
M 220.00 189.00 
C 201.91 185.57 196.23 212.32 213.33 216.67 C 230.43 221.02 236.51 192.13 220.00 189.00
M 220.00 196.00 
C 226.97 199.50 219.55 212.13 212.78 207.22 C 206.01 202.31 213.24 192.61 220.00 196.00 Z"/>
</g>
<g fill="None" fill-opacity="0.0" stroke="#7BBE53" stroke-opacity="1.00" stroke-width="0.3"><path d="
M 326.00 192.00 
C 310.97 187.44 303.56 209.44 317.78 215.22 C 332.00 221.00 339.89 196.22 326.00 192.00 Z"/>
</g>
<g fill="None" fill-opacity="0.0" stroke="#7EBD56" stroke-opacity="1.00" stroke-width="0.3"><path d="
M 220.00 196.00 
C 213.24 192.61 206.01 202.31 212.78 207.22 C 219.55 212.13 226.97 199.50 220.00 196.00 Z"/>
</g>
<g fill="None" fill-opacity="0.0" stroke="#A0BD89" stroke-opacity="1.00" stroke-width="0.3"><path d="
M 368.00 213.00 
C 368.92 207.89 368.84 202.16 368.00 197.00
C 368.28 202.20 368.35 207.81 368.00 213.00 Z"/>
</g>
<g fill="None" fill-opacity="0.0" stroke="#9FC689" stroke-opacity="1.00" stroke-width="0.3"><path d="
M 294.00 245.00 
C 288.50 240.53 283.20 234.76 279.00 229.00
C 282.57 235.48 287.70 240.94 294.00 245.00 Z"/>
</g>
<g fill="None" fill-opacity="0.0" stroke="#EEFCE2" stroke-opacity="1.00" stroke-width="0.3"><path d="
M 86.00 258.00 
C 105.19 256.23 123.94 253.00 144.00 253.00
C 162.05 251.25 181.63 253.00 200.00 253.00
C 203.65 252.63 208.51 254.20 211.00 251.00
C 202.79 252.02 193.64 251.63 185.07 250.93 C 176.50 250.22 166.78 249.65 158.00 250.00 C 149.22 250.35 140.16 249.34 132.00 251.00 C 123.84 252.66 113.05 251.86 105.00 252.00 C 96.96 252.14 89.82 256.43 86.00 258.00 Z"/>
</g>
<g fill="None" fill-opacity="0.0" stroke="#B6DA9C" stroke-opacity="1.00" stroke-width="0.3"><path d="
M 144.00 253.00 
C 162.70 253.00 181.67 254.00 200.00 254.00
C 200.00 254.00 200.04 253.00 200.00 253.00
C 181.63 253.00 162.05 251.25 144.00 253.00 Z"/>
</g>
<g fill="None" fill-opacity="0.0" stroke="#76BD4A" stroke-opacity="1.00" stroke-width="0.3"><path d="
M 86.00 258.00 
C 84.68 258.12 83.32 257.87 82.00 258.00
C 68.08 259.37 53.42 263.20 40.00 267.00
C 38.32 267.68 34.51 269.94 34.00 272.00
C 34.00 273.33 34.00 274.67 34.00 276.00
C 34.00 286.56 34.21 296.62 35.00 307.00
C 37.23 318.75 50.60 305.21 59.68 302.68 C 68.75 300.15 79.07 293.49 89.02 291.02 C 98.98 288.56 109.77 283.75 120.22 281.22 C 130.68 278.69 143.43 276.78 154.00 274.00
C 157.38 273.11 161.10 272.45 165.00 272.00
C 169.38 271.50 173.52 271.46 178.00 271.00
C 181.49 270.64 184.51 269.51 188.00 269.00
C 213.93 265.21 240.03 264.00 267.00 264.00
C 268.20 263.85 271.88 262.05 273.00 262.00
C 266.08 260.90 258.43 259.04 252.00 258.00
C 234.50 258.00 217.79 254.00 200.00 254.00
C 181.67 254.00 162.70 253.00 144.00 253.00
C 123.94 253.00 105.19 256.23 86.00 258.00 Z"/>
</g>
<g fill="None" fill-opacity="0.0" stroke="#EEFBE0" stroke-opacity="1.00" stroke-width="0.3"><path d="
M 34.00 270.00 
C 34.87 266.96 37.64 267.67 40.00 267.00
C 53.42 263.20 68.08 259.37 82.00 258.00
C 75.39 257.38 62.39 257.93 55.67 260.67 C 48.96 263.41 33.03 259.94 34.00 270.00 Z"/>
</g>
<g fill="None" fill-opacity="0.0" stroke="#E7F8D7" stroke-opacity="1.00" stroke-width="0.3"><path d="
M 273.00 262.00 
C 275.38 262.38 277.47 263.11 280.00 263.00
C 276.58 265.21 271.18 263.42 267.00 264.00
C 240.03 264.00 213.93 265.21 188.00 269.00
C 207.53 270.80 228.41 264.11 248.00 267.00
C 241.12 266.93 234.77 269.71 229.00 272.00
C 241.62 269.30 255.09 267.34 268.00 266.00 C 280.91 264.67 295.25 260.94 306.00 270.00
C 299.21 276.97 289.29 279.43 281.92 285.92 C 274.55 292.40 267.10 298.14 259.75 304.75 C 252.41 311.36 247.21 318.29 240.75 325.75 C 234.29 333.21 229.54 341.67 224.08 350.08 C 218.63 358.49 214.81 366.82 210.08 376.08 C 205.34 385.33 204.80 400.11 191.00 398.00 C 177.20 395.89 163.76 399.58 150.00 398.00
C 153.85 387.18 162.07 377.99 168.00 368.00
C 163.20 373.39 158.54 375.21 155.32 380.32 C 152.11 385.44 148.35 393.47 149.00 399.00
C 146.84 397.29 143.94 394.25 144.00 400.00
C 154.75 400.01 167.82 398.17 179.00 399.00 C 190.18 399.83 202.34 401.66 206.01 391.01 C 209.67 380.35 212.89 376.27 216.70 366.70 C 220.51 357.13 227.72 352.17 231.25 343.25 C 234.77 334.32 242.14 329.70 247.08 322.08 C 252.02 314.47 262.39 311.64 263.00 303.00
C 266.45 301.82 268.81 302.83 272.00 304.00
C 264.94 298.15 279.36 291.52 285.25 286.25 C 291.15 280.99 302.64 274.19 310.00 272.00
C 307.18 260.36 293.42 266.61 284.02 262.98 C 274.63 259.34 263.04 258.00 252.00 258.00
C 258.43 259.04 266.08 260.90 273.00 262.00 Z"/>
</g>
<g fill="None" fill-opacity="0.0" stroke="#A8C995" stroke-opacity="1.00" stroke-width="0.3"><path d="
M 267.00 264.00 
C 271.18 263.42 276.58 265.21 280.00 263.00
C 277.47 263.11 275.38 262.38 273.00 262.00
C 271.88 262.05 268.20 263.85 267.00 264.00 Z"/>
</g>
<g fill="None" fill-opacity="0.0" stroke="#76BD49" stroke-opacity="1.00" stroke-width="0.3"><path d="
M 229.00 272.00 
C 222.55 274.56 214.92 275.75 208.00 278.00
C 198.47 281.09 188.26 284.74 178.78 288.78 C 169.30 292.81 158.87 296.10 149.78 300.78 C 140.69 305.46 131.82 310.30 122.93 314.93 C 114.04 319.55 105.13 324.51 96.78 329.78 C 88.42 335.04 80.33 340.67 72.25 346.25 C 64.18 351.84 56.19 357.02 48.75 363.75 C 41.32 370.49 54.59 384.07 63.02 384.98 C 71.46 385.88 85.85 396.06 95.00 394.00
C 119.75 368.48 144.91 342.77 174.00 324.00
C 178.36 321.19 183.37 318.37 188.00 316.00
C 196.23 310.41 203.89 304.56 213.00 300.00
C 224.81 294.10 236.63 288.62 249.00 284.00
C 254.42 281.97 259.62 279.94 265.00 278.00
C 270.49 276.02 277.94 271.43 284.00 275.00
C 277.38 276.40 271.21 279.25 265.00 282.00
C 228.49 299.07 188.00 332.48 168.00 368.00
C 162.07 377.99 153.85 387.18 150.00 398.00
C 163.76 399.58 177.20 395.89 191.00 398.00 C 204.80 400.11 205.34 385.33 210.08 376.08 C 214.81 366.82 218.63 358.49 224.08 350.08 C 229.54 341.67 234.29 333.21 240.75 325.75 C 247.21 318.29 252.41 311.36 259.75 304.75 C 267.10 298.14 274.55 292.40 281.92 285.92 C 289.29 279.43 299.21 276.97 306.00 270.00
C 295.25 260.94 280.91 264.67 268.00 266.00 C 255.09 267.34 241.62 269.30 229.00 272.00 Z"/>
</g>
<g fill="None" fill-opacity="0.0" stroke="#B9DB9C" stroke-opacity="1.00" stroke-width="0.3"><path d="
M 34.00 270.00 
C 34.05 270.50 34.00 271.50 34.00 272.00
C 34.51 269.94 38.32 267.68 40.00 267.00
C 37.64 267.67 34.87 266.96 34.00 270.00 Z"/>
</g>
<g fill="None" fill-opacity="0.0" stroke="#ECFADF" stroke-opacity="1.00" stroke-width="0.3"><path d="
M 165.00 272.00 
C 161.68 272.71 157.82 273.39 154.00 274.00
C 143.43 276.78 130.68 278.69 120.22 281.22 C 109.77 283.75 98.98 288.56 89.02 291.02 C 79.07 293.49 68.75 300.15 59.68 302.68 C 50.60 305.21 37.23 318.75 35.00 307.00
C 33.43 298.72 32.47 289.12 33.00 280.00
C 29.59 290.12 34.28 305.27 32.00 314.00
C 48.13 315.56 59.10 302.15 74.33 298.33 C 89.56 294.51 104.19 285.20 121.00 286.00
C 123.70 278.27 133.89 283.31 139.78 279.78 C 145.66 276.25 154.86 277.83 161.00 278.00 C 167.14 278.17 172.29 272.95 178.00 271.00
C 173.52 271.46 169.38 271.50 165.00 272.00 Z"/>
</g>
<g fill="None" fill-opacity="0.0" stroke="#A1C38F" stroke-opacity="1.00" stroke-width="0.3"><path d="
M 154.00 274.00 
C 157.82 273.39 161.68 272.71 165.00 272.00
C 161.10 272.45 157.38 273.11 154.00 274.00 Z"/>
</g>
<g fill="None" fill-opacity="0.0" stroke="#D4F5C0" stroke-opacity="1.00" stroke-width="0.3"><path d="
M 265.00 278.00 
C 267.73 278.75 266.72 280.20 265.00 282.00
C 271.21 279.25 277.38 276.40 284.00 275.00
C 277.94 271.43 270.49 276.02 265.00 278.00 Z"/>
</g>
<g fill="None" fill-opacity="0.0" stroke="#E8FADA" stroke-opacity="1.00" stroke-width="0.3"><path d="
M 318.00 277.00 
C 318.10 278.48 317.18 278.18 317.00 279.00
C 314.36 291.22 313.91 302.73 311.01 315.01 C 308.11 327.28 309.66 340.39 307.00 353.00 C 304.34 365.61 308.65 381.20 306.00 394.00
C 305.74 395.28 306.20 396.71 306.00 398.00
C 290.67 398.00 275.33 398.00 260.00 398.00
C 259.83 395.86 260.11 393.16 262.00 392.00
C 264.73 384.02 267.16 375.17 270.32 367.32 C 273.49 359.47 275.74 350.21 279.92 342.92 C 284.11 335.64 285.68 327.02 290.31 320.31 C 294.93 313.59 296.49 303.56 301.77 297.77 C 307.05 291.98 307.58 280.08 314.00 276.00
C 315.20 275.24 316.88 274.12 318.00 276.00
C 321.19 272.23 310.70 274.10 310.92 278.92 C 311.15 283.75 305.58 286.82 303.00 288.00
C 301.75 295.97 297.07 301.90 293.75 308.75 C 290.44 315.61 285.00 320.67 283.32 328.32 C 281.64 335.98 277.74 342.23 274.33 349.33 C 270.92 356.42 269.59 363.96 266.97 369.97 C 264.36 375.99 264.26 389.31 256.00 386.00
C 255.05 389.49 257.45 390.11 260.00 391.00
C 254.11 403.78 268.30 398.27 277.00 399.00 C 285.70 399.73 297.47 397.70 306.00 400.00
C 308.70 390.04 308.76 377.65 308.00 367.00 C 307.24 356.35 310.56 344.79 311.00 335.00 C 311.44 325.21 314.70 312.39 314.67 303.67 C 314.64 294.96 322.65 283.38 318.00 277.00 Z"/>
</g>
<g fill="None" fill-opacity="0.0" stroke="#96B088" stroke-opacity="1.00" stroke-width="0.3"><path d="
M 314.00 276.00 
C 316.15 275.75 316.90 279.00 317.00 279.00
C 317.18 278.18 318.10 278.48 318.00 277.00
C 318.00 277.00 317.83 276.07 318.00 276.00
C 316.88 274.12 315.20 275.24 314.00 276.00 Z"/>
</g>
<g fill="None" fill-opacity="0.0" stroke="#98BE80" stroke-opacity="1.00" stroke-width="0.3"><path d="
M 33.00 280.00 
C 32.47 289.12 33.43 298.72 35.00 307.00
C 34.21 296.62 34.00 286.56 34.00 276.00
C 33.86 276.92 33.09 278.46 33.00 280.00 Z"/>
</g>
<g fill="None" fill-opacity="0.0" stroke="#76BD49" stroke-opacity="1.00" stroke-width="0.3"><path d="
M 262.00 392.00 
C 261.74 393.71 260.72 395.11 261.00 397.00
C 275.67 397.00 290.33 397.00 305.00 397.00
C 305.11 396.00 304.53 394.27 306.00 394.00
C 308.65 381.20 304.34 365.61 307.00 353.00 C 309.66 340.39 308.11 327.28 311.01 315.01 C 313.91 302.73 314.36 291.22 317.00 279.00
C 316.90 279.00 316.15 275.75 314.00 276.00
C 307.58 280.08 307.05 291.98 301.77 297.77 C 296.49 303.56 294.93 313.59 290.31 320.31 C 285.68 327.02 284.11 335.64 279.92 342.92 C 275.74 350.21 273.49 359.47 270.32 367.32 C 267.16 375.17 264.73 384.02 262.00 392.00 Z"/>
</g>
<g fill="None" fill-opacity="0.0" stroke="#E5F8D8" stroke-opacity="1.00" stroke-width="0.3"><path d="
M 352.00 303.00 
C 353.92 306.08 356.03 309.02 358.00 312.00
C 364.20 319.40 370.19 327.03 376.00 335.00
C 382.15 343.43 380.05 354.94 373.25 361.25 C 366.45 367.56 357.12 378.86 353.07 368.93 C 349.03 358.99 347.97 349.28 344.68 339.32 C 341.39 329.36 338.75 320.03 336.02 309.98 C 333.29 299.92 328.90 290.56 328.00 280.00
C 330.52 281.14 333.08 282.24 336.00 282.00
C 340.17 289.09 345.08 296.74 352.00 302.00
C 344.44 294.76 343.70 278.84 331.22 277.78 C 318.74 276.72 331.07 297.03 333.01 306.99 C 334.95 316.96 340.79 333.13 343.23 343.77 C 345.67 354.41 352.59 366.76 353.00 376.00
C 363.76 377.21 368.19 368.72 375.23 362.23 C 382.27 355.74 383.64 341.86 379.25 333.75 C 374.87 325.63 363.30 321.38 367.00 313.00
C 358.77 315.72 358.77 305.51 352.00 303.00 Z"/>
</g>
<g fill="None" fill-opacity="0.0" stroke="#EBFBDF" stroke-opacity="1.00" stroke-width="0.3"><path d="
M 249.00 284.00 
C 236.63 288.62 224.81 294.10 213.00 300.00
C 205.09 305.21 196.74 311.53 188.00 316.00
C 183.37 318.37 178.36 321.19 174.00 324.00
C 167.42 329.41 160.90 336.01 153.77 340.77 C 146.64 345.53 140.17 352.45 133.30 357.30 C 126.44 362.16 121.00 370.87 114.25 375.25 C 107.50 379.62 102.59 392.29 95.00 394.00
C 85.85 396.06 71.46 385.88 63.02 384.98 C 54.59 384.07 41.32 370.49 48.75 363.75 C 56.19 357.02 64.18 351.84 72.25 346.25 C 80.33 340.67 88.42 335.04 96.78 329.78 C 105.13 324.51 114.04 319.55 122.93 314.93 C 131.82 310.30 140.69 305.46 149.78 300.78 C 158.87 296.10 169.30 292.81 178.78 288.78 C 188.26 284.74 198.47 281.09 208.00 278.00
C 190.65 279.10 173.58 287.51 159.02 294.02 C 144.47 300.54 129.45 307.97 116.08 316.08 C 102.71 324.19 88.38 331.56 76.08 341.08 C 63.79 350.60 48.85 357.44 41.00 369.00
C 46.99 376.25 56.10 382.45 60.00 391.00
C 66.54 387.99 74.32 389.50 80.93 392.07 C 87.54 394.65 94.96 396.08 100.30 391.30 C 105.64 386.52 106.10 381.71 112.77 378.77 C 119.44 375.83 121.33 370.40 126.30 366.30 C 131.27 362.21 134.77 357.80 141.00 356.00
C 142.30 346.75 154.66 344.78 160.08 338.08 C 165.51 331.39 174.42 328.21 180.92 323.92 C 187.41 319.63 194.92 312.30 202.92 308.92 C 210.93 305.55 217.65 295.32 226.00 299.00
C 229.06 293.22 237.03 289.10 243.00 290.00
C 242.65 287.02 247.54 284.82 249.00 284.00 Z"/>
</g>
<g fill="None" fill-opacity="0.0" stroke="#77BD4A" stroke-opacity="1.00" stroke-width="0.3"><path d="
M 376.00 335.00 
C 369.29 327.74 363.42 320.22 358.00 312.00
C 356.03 309.02 353.92 306.08 352.00 303.00
C 352.00 303.00 351.98 302.50 352.00 302.00
C 345.08 296.74 340.17 289.09 336.00 282.00
C 333.08 282.24 330.52 281.14 328.00 280.00
C 328.90 290.56 333.29 299.92 336.02 309.98 C 338.75 320.03 341.39 329.36 344.68 339.32 C 347.97 349.28 349.03 358.99 353.07 368.93 C 357.12 378.86 366.45 367.56 373.25 361.25 C 380.05 354.94 382.15 343.43 376.00 335.00 Z"/>
</g>
<g fill="None" fill-opacity="0.0" stroke="#CCEEB5" stroke-opacity="1.00" stroke-width="0.3"><path d="
M 188.00 316.00 
C 196.74 311.53 205.09 305.21 213.00 300.00
C 203.89 304.56 196.23 310.41 188.00 316.00 Z"/>
</g>
<g fill="None" fill-opacity="0.0" stroke="#A7CB8D" stroke-opacity="1.00" stroke-width="0.3"><path d="
M 376.00 335.00 
C 370.19 327.03 364.20 319.40 358.00 312.00
C 363.42 320.22 369.29 327.74 376.00 335.00 Z"/>
</g>
<g fill="None" fill-opacity="0.0" stroke="#C0E1A8" stroke-opacity="1.00" stroke-width="0.3"><path d="
M 95.00 394.00 
C 102.59 392.29 107.50 379.62 114.25 375.25 C 121.00 370.87 126.44 362.16 133.30 357.30 C 140.17 352.45 146.64 345.53 153.77 340.77 C 160.90 336.01 167.42 329.41 174.00 324.00
C 144.91 342.77 119.75 368.48 95.00 394.00 Z"/>
</g>
<g fill="None" fill-opacity="0.0" stroke="#A6CE8D" stroke-opacity="1.00" stroke-width="0.3"><path d="
M 306.00 394.00 
C 304.53 394.27 305.11 396.00 305.00 397.00
C 290.33 397.00 275.67 397.00 261.00 397.00
C 260.72 395.11 261.74 393.71 262.00 392.00
C 260.11 393.16 259.83 395.86 260.00 398.00
C 275.33 398.00 290.67 398.00 306.00 398.00
C 306.20 396.71 305.74 395.28 306.00 394.00 Z"/>
</g>
<g fill="#FDFDFC" fill-opacity="1.00" stroke="None">
<path d="
M 0.00 437.00 
L 405.00 437.00
L 405.00 0.00
L 0.00 0.00
L 0.00 437.00
M 278.00 65.00 
C 267.65 71.61 274.75 75.04 278.00 84.00
C 272.59 85.88 270.91 88.18 266.25 92.25 C 261.58 96.32 257.29 89.50 256.00 85.00
C 265.52 82.42 259.93 74.80 256.00 70.00
C 254.97 66.31 257.97 64.08 262.00 63.00
C 257.64 57.54 254.61 51.24 259.75 45.75 C 264.89 40.26 269.15 35.91 275.75 37.59 C 282.36 39.27 282.48 51.53 275.00 53.00
C 276.36 57.17 282.03 57.77 283.00 62.00
C 281.66 63.12 279.49 63.68 278.00 65.00
M 137.00 90.00 
C 133.18 86.86 133.57 65.13 135.00 59.00
C 135.32 57.62 135.88 56.47 136.00 55.00
C 150.64 57.67 142.35 82.69 144.00 92.00
C 141.91 90.80 138.55 91.82 137.00 90.00
M 63.00 60.00 
C 63.20 60.40 63.00 61.00 63.00 61.00
C 67.92 67.65 61.67 82.19 65.00 90.00
C 62.70 89.30 60.34 94.00 56.00 93.00
C 52.54 81.87 53.08 67.37 56.00 56.00
C 59.06 55.20 61.71 57.49 63.00 60.00
M 322.00 79.00 
C 326.51 79.63 331.37 80.22 336.00 81.00
C 339.99 81.11 345.91 82.05 351.00 82.00
C 349.49 91.52 356.00 100.65 358.00 110.00 C 360.00 119.35 367.13 129.01 366.00 139.00 C 364.87 148.99 364.30 165.24 354.25 157.75 C 344.20 150.27 339.75 148.77 329.00 145.00
C 297.48 139.46 274.06 159.98 261.00 186.00
C 260.98 187.19 263.08 193.22 256.00 192.00
C 251.45 181.99 245.43 168.16 232.00 168.00
C 232.13 165.63 230.29 164.42 229.00 163.00
C 221.30 160.97 213.33 160.64 205.00 162.00
C 202.98 162.72 200.41 165.08 198.00 166.00
C 197.03 164.15 196.21 161.76 194.00 161.00
C 200.33 152.62 198.14 140.66 203.00 132.00
C 205.87 126.27 211.75 123.18 217.75 118.75 C 223.75 114.32 230.62 108.32 239.67 112.33 C 248.72 116.34 254.79 110.79 253.00 100.00
C 259.25 99.69 264.90 101.64 271.00 102.00
C 271.68 105.94 269.97 109.21 270.00 113.00
C 269.99 113.50 270.00 114.00 270.00 114.00
C 277.82 116.25 285.74 118.33 294.00 119.00
C 294.76 112.24 295.47 104.99 298.00 99.00
C 298.57 97.90 298.74 97.51 299.00 96.00
C 298.46 93.24 297.69 87.84 298.98 82.98 C 300.26 78.11 298.03 71.21 306.00 72.00
C 301.03 79.31 318.88 74.30 322.00 79.00
M 82.00 80.00 
C 90.01 80.64 87.43 91.81 87.00 97.00 C 86.57 102.19 89.93 116.04 81.93 115.93 C 73.92 115.82 78.09 101.90 77.00 97.00 C 75.91 92.10 74.50 79.40 82.00 80.00
M 166.00 90.00 
C 165.97 91.00 166.00 92.00 166.00 93.00
C 167.22 98.55 170.24 114.77 162.00 113.00
C 161.04 112.79 159.96 113.20 159.00 113.00
C 155.79 112.33 156.25 99.65 157.00 96.00 C 157.75 92.35 153.43 80.40 160.03 80.03 C 166.64 79.66 167.63 85.30 166.00 90.00
M 120.00 82.00 
C 120.00 92.33 120.00 102.67 120.00 113.00
C 110.34 115.98 112.82 104.19 113.00 98.00 C 113.18 91.81 109.82 78.97 120.00 82.00
M 40.00 112.00 
C 38.87 113.62 34.12 113.60 33.00 112.00
C 30.74 108.78 34.10 102.08 33.00 98.00 C 31.90 93.92 33.83 87.31 33.00 83.00
C 41.48 80.41 40.15 88.14 40.00 94.00 C 39.85 99.86 40.12 106.10 40.00 112.00
M 76.00 180.00 
C 69.90 181.90 61.30 183.47 64.00 192.00
C 70.77 186.69 79.19 184.28 88.00 184.00
C 92.69 187.15 87.43 199.91 84.25 204.25 C 81.06 208.58 72.03 210.89 67.00 213.00 C 61.97 215.11 66.61 233.25 65.00 238.00
C 56.20 240.48 51.11 235.39 55.00 225.00 C 58.89 214.61 48.45 213.22 41.78 211.22 C 35.10 209.23 33.99 198.63 32.00 194.00
C 31.70 190.69 32.23 187.31 32.00 184.00
C 39.73 185.65 44.16 184.01 51.25 188.75 C 58.33 193.50 53.96 181.76 47.00 182.00
C 43.43 180.99 39.24 178.79 35.00 177.00
C 32.27 171.34 31.85 167.57 31.00 161.00 C 30.15 154.43 34.63 148.91 37.00 155.00
C 37.43 155.09 39.19 155.79 40.00 156.00
C 42.14 155.94 45.51 155.64 48.00 155.00
C 38.08 149.68 33.84 148.70 31.00 136.00 C 28.16 123.30 41.23 121.00 50.00 130.00
C 47.07 120.33 48.88 110.82 51.00 101.00
C 55.44 97.64 59.99 94.92 65.00 97.00
C 66.35 100.22 68.23 110.42 72.00 106.00
C 69.74 114.22 73.12 122.56 69.00 130.00
C 71.68 129.76 74.51 126.86 74.00 124.00
C 83.65 118.84 94.18 124.99 90.00 135.00 C 85.82 145.01 83.69 148.15 76.00 154.00
C 85.12 150.44 91.09 154.61 89.00 164.00 C 86.91 173.39 84.13 177.36 76.00 180.00
M 152.00 129.00 
C 157.32 128.47 162.33 126.26 168.00 127.00
C 168.47 133.15 165.54 138.39 164.00 144.00
C 162.67 148.37 160.56 150.00 159.00 154.00
C 162.28 153.57 165.47 152.52 169.00 153.00
C 170.55 163.17 167.85 173.91 159.00 179.00
C 158.12 179.40 156.74 179.58 156.00 180.00
C 154.79 180.68 152.61 182.67 154.00 184.00
C 150.62 182.13 144.84 184.98 145.00 189.00
C 153.85 182.02 173.30 179.65 169.02 194.02 C 164.75 208.40 158.43 212.67 145.00 215.00
C 141.37 222.46 150.25 229.96 144.07 237.07 C 137.89 244.18 133.16 233.14 135.00 228.00 C 136.84 222.86 135.31 212.45 129.00 213.00 C 122.68 213.56 118.90 206.27 114.00 204.00
C 114.00 202.33 114.00 200.67 114.00 199.00
C 112.92 194.13 111.30 189.35 112.00 184.00
C 120.66 184.04 128.77 187.09 135.00 193.00
C 140.09 181.40 127.17 183.43 120.77 178.23 C 114.37 173.03 111.03 163.37 112.00 155.00
C 121.25 155.01 130.06 159.31 136.00 166.00
C 139.17 156.59 133.14 153.76 126.31 152.69 C 119.47 151.63 117.94 144.78 114.00 141.00
C 111.74 137.68 107.80 125.87 114.08 124.08 C 120.36 122.30 123.58 128.43 130.00 130.00
C 125.44 118.66 129.23 89.11 146.00 99.00
C 143.86 106.19 151.55 106.10 150.66 111.68 C 149.78 117.26 150.20 124.58 148.00 130.00
C 149.56 130.41 150.69 129.54 152.00 129.00
M 338.00 160.00 
C 363.06 166.99 378.05 194.85 368.07 220.07 C 358.10 245.30 333.11 262.98 304.00 254.00
C 303.46 250.01 297.94 249.37 294.25 246.75 C 290.55 244.13 286.96 239.13 283.00 240.00
C 265.46 219.61 266.66 181.16 290.00 167.00
C 290.44 166.84 291.00 167.00 291.00 167.00
C 293.65 163.21 296.99 161.37 301.00 160.00
C 313.27 155.80 325.63 156.55 338.00 160.00
M 224.00 172.00 
C 246.73 176.39 255.98 209.03 240.75 225.75 C 225.52 242.47 194.34 239.69 186.08 215.92 C 177.81 192.15 197.02 166.79 224.00 172.00
M 200.00 253.00 
C 200.04 253.00 200.00 254.00 200.00 254.00
C 217.79 254.00 234.50 258.00 252.00 258.00
C 263.04 258.00 274.63 259.34 284.02 262.98 C 293.42 266.61 307.18 260.36 310.00 272.00
C 302.64 274.19 291.15 280.99 285.25 286.25 C 279.36 291.52 264.94 298.15 272.00 304.00
C 268.81 302.83 266.45 301.82 263.00 303.00
C 262.39 311.64 252.02 314.47 247.08 322.08 C 242.14 329.70 234.77 334.32 231.25 343.25 C 227.72 352.17 220.51 357.13 216.70 366.70 C 212.89 376.27 209.67 380.35 206.01 391.01 C 202.34 401.66 190.18 399.83 179.00 399.00 C 167.82 398.17 154.75 400.01 144.00 400.00
C 143.94 394.25 146.84 397.29 149.00 399.00
C 148.35 393.47 152.11 385.44 155.32 380.32 C 158.54 375.21 163.20 373.39 168.00 368.00
C 188.00 332.48 228.49 299.07 265.00 282.00
C 266.72 280.20 267.73 278.75 265.00 278.00
C 259.62 279.94 254.42 281.97 249.00 284.00
C 247.54 284.82 242.65 287.02 243.00 290.00
C 237.03 289.10 229.06 293.22 226.00 299.00
C 217.65 295.32 210.93 305.55 202.92 308.92 C 194.92 312.30 187.41 319.63 180.92 323.92 C 174.42 328.21 165.51 331.39 160.08 338.08 C 154.66 344.78 142.30 346.75 141.00 356.00
C 134.77 357.80 131.27 362.21 126.30 366.30 C 121.33 370.40 119.44 375.83 112.77 378.77 C 106.10 381.71 105.64 386.52 100.30 391.30 C 94.96 396.08 87.54 394.65 80.93 392.07 C 74.32 389.50 66.54 387.99 60.00 391.00
C 56.10 382.45 46.99 376.25 41.00 369.00
C 48.85 357.44 63.79 350.60 76.08 341.08 C 88.38 331.56 102.71 324.19 116.08 316.08 C 129.45 307.97 144.47 300.54 159.02 294.02 C 173.58 287.51 190.65 279.10 208.00 278.00
C 214.92 275.75 222.55 274.56 229.00 272.00
C 234.77 269.71 241.12 266.93 248.00 267.00
C 228.41 264.11 207.53 270.80 188.00 269.00
C 184.51 269.51 181.49 270.64 178.00 271.00
C 172.29 272.95 167.14 278.17 161.00 278.00 C 154.86 277.83 145.66 276.25 139.78 279.78 C 133.89 283.31 123.70 278.27 121.00 286.00
C 104.19 285.20 89.56 294.51 74.33 298.33 C 59.10 302.15 48.13 315.56 32.00 314.00
C 34.28 305.27 29.59 290.12 33.00 280.00
C 33.09 278.46 33.86 276.92 34.00 276.00
C 34.00 274.67 34.00 273.33 34.00 272.00
C 34.00 271.50 34.05 270.50 34.00 270.00
C 33.03 259.94 48.96 263.41 55.67 260.67 C 62.39 257.93 75.39 257.38 82.00 258.00
C 83.32 257.87 84.68 258.12 86.00 258.00
C 89.82 256.43 96.96 252.14 105.00 252.00 C 113.05 251.86 123.84 252.66 132.00 251.00 C 140.16 249.34 149.22 250.35 158.00 250.00 C 166.78 249.65 176.50 250.22 185.07 250.93 C 193.64 251.63 202.79 252.02 211.00 251.00
C 208.51 254.20 203.65 252.63 200.00 253.00
M 318.00 276.00 
C 317.83 276.07 318.00 277.00 318.00 277.00
C 322.65 283.38 314.64 294.96 314.67 303.67 C 314.70 312.39 311.44 325.21 311.00 335.00 C 310.56 344.79 307.24 356.35 308.00 367.00 C 308.76 377.65 308.70 390.04 306.00 400.00
C 297.47 397.70 285.70 399.73 277.00 399.00 C 268.30 398.27 254.11 403.78 260.00 391.00
C 257.45 390.11 255.05 389.49 256.00 386.00
C 264.26 389.31 264.36 375.99 266.97 369.97 C 269.59 363.96 270.92 356.42 274.33 349.33 C 277.74 342.23 281.64 335.98 283.32 328.32 C 285.00 320.67 290.44 315.61 293.75 308.75 C 297.07 301.90 301.75 295.97 303.00 288.00
C 305.58 286.82 311.15 283.75 310.92 278.92 C 310.70 274.10 321.19 272.23 318.00 276.00
M 352.00 302.00 
C 351.98 302.50 352.00 303.00 352.00 303.00
C 358.77 305.51 358.77 315.72 367.00 313.00
C 363.30 321.38 374.87 325.63 379.25 333.75 C 383.64 341.86 382.27 355.74 375.23 362.23 C 368.19 368.72 363.76 377.21 353.00 376.00
C 352.59 366.76 345.67 354.41 343.23 343.77 C 340.79 333.13 334.95 316.96 333.01 306.99 C 331.07 297.03 318.74 276.72 331.22 277.78 C 343.70 278.84 344.44 294.76 352.00 302.00 Z"/>
</g>
<g fill="#E4F6D6" fill-opacity="1.00" stroke="None">
<path d="
M 256.00 70.00 
C 255.91 65.43 264.22 64.42 263.64 60.30 C 263.06 56.19 255.49 54.11 257.00 49.00
C 262.30 46.87 266.28 41.41 272.00 40.00
C 275.77 38.52 282.60 45.38 276.00 50.00
C 274.76 50.87 273.29 51.23 272.00 52.00
C 272.34 56.89 279.37 60.35 278.00 65.00
C 279.49 63.68 281.66 63.12 283.00 62.00
C 282.03 57.77 276.36 57.17 275.00 53.00
C 282.48 51.53 282.36 39.27 275.75 37.59 C 269.15 35.91 264.89 40.26 259.75 45.75 C 254.61 51.24 257.64 57.54 262.00 63.00
C 257.97 64.08 254.97 66.31 256.00 70.00 Z"/>
</g>
<g fill="#ACCA96" fill-opacity="1.00" stroke="None">
<path d="
M 272.00 40.00 
C 277.20 40.23 278.78 46.62 276.00 50.00
C 282.60 45.38 275.77 38.52 272.00 40.00 Z"/>
</g>
<g fill="#7BBD53" fill-opacity="1.00" stroke="None">
<path d="
M 256.00 70.00 
C 259.93 74.80 265.52 82.42 256.00 85.00
C 257.29 89.50 261.58 96.32 266.25 92.25 C 270.91 88.18 272.59 85.88 278.00 84.00
C 274.75 75.04 267.65 71.61 278.00 65.00
C 279.37 60.35 272.34 56.89 272.00 52.00
C 273.29 51.23 274.76 50.87 276.00 50.00
C 278.78 46.62 277.20 40.23 272.00 40.00
C 266.28 41.41 262.30 46.87 257.00 49.00
C 255.49 54.11 263.06 56.19 263.64 60.30 C 264.22 64.42 255.91 65.43 256.00 70.00 Z"/>
</g>
<g fill="#F1FDE5" fill-opacity="1.00" stroke="None">
<path d="
M 135.00 59.00 
C 137.64 55.21 144.29 59.44 143.00 64.00 C 141.70 68.56 147.15 94.29 137.00 90.00
C 138.55 91.82 141.91 90.80 144.00 92.00
C 142.35 82.69 150.64 57.67 136.00 55.00
C 135.88 56.47 135.32 57.62 135.00 59.00 Z"/>
</g>
<g fill="#E6F8DA" fill-opacity="1.00" stroke="None">
<path d="
M 63.00 61.00 
C 63.00 65.18 63.43 72.10 63.00 76.00 C 62.57 79.90 65.05 87.39 61.00 89.00
C 59.56 89.57 57.49 88.57 56.00 89.00
C 56.00 79.33 56.00 69.67 56.00 60.00
C 57.22 58.23 61.40 58.71 63.00 60.00
C 61.71 57.49 59.06 55.20 56.00 56.00
C 53.08 67.37 52.54 81.87 56.00 93.00
C 60.34 94.00 62.70 89.30 65.00 90.00
C 61.67 82.19 67.92 67.65 63.00 61.00 Z"/>
</g>
<g fill="#BBDBA8" fill-opacity="1.00" stroke="None">
<path d="
M 135.00 59.00 
C 133.57 65.13 133.18 86.86 137.00 90.00
C 147.15 94.29 141.70 68.56 143.00 64.00 C 144.29 59.44 137.64 55.21 135.00 59.00
M 142.00 60.00 
C 142.00 69.67 142.00 79.33 142.00 89.00
C 133.52 91.48 135.82 80.44 136.00 75.00 C 136.18 69.56 133.01 57.50 142.00 60.00 Z"/>
</g>
<g fill="#A8CA94" fill-opacity="1.00" stroke="None">
<path d="
M 56.00 60.00 
C 58.00 60.00 60.00 60.00 62.00 60.00
C 61.37 69.59 63.28 79.85 61.00 89.00
C 65.05 87.39 62.57 79.90 63.00 76.00 C 63.43 72.10 63.00 65.18 63.00 61.00
C 63.00 61.00 63.20 60.40 63.00 60.00
C 61.40 58.71 57.22 58.23 56.00 60.00 Z"/>
</g>
<g fill="#78B851" fill-opacity="1.00" stroke="None">
<path d="
M 61.00 89.00 
C 63.28 79.85 61.37 69.59 62.00 60.00
C 60.00 60.00 58.00 60.00 56.00 60.00
C 56.00 69.67 56.00 79.33 56.00 89.00
C 57.49 88.57 59.56 89.57 61.00 89.00 Z"/>
</g>
<g fill="#79BA52" fill-opacity="1.00" stroke="None">
<path d="
M 142.00 60.00 
C 133.01 57.50 136.18 69.56 136.00 75.00 C 135.82 80.44 133.52 91.48 142.00 89.00
C 142.00 79.33 142.00 69.67 142.00 60.00 Z"/>
</g>
<g fill="#E6F8DA" fill-opacity="1.00" stroke="None">
<path d="
M 299.00 96.00 
C 300.07 89.68 300.58 83.25 302.00 77.00
C 308.93 76.60 315.10 79.18 322.00 79.00
C 318.88 74.30 301.03 79.31 306.00 72.00
C 298.03 71.21 300.26 78.11 298.98 82.98 C 297.69 87.84 298.46 93.24 299.00 96.00 Z"/>
</g>
<g fill="#78BE4D" fill-opacity="1.00" stroke="None">
<path d="
M 299.00 96.00 
C 298.74 97.51 298.57 97.90 298.00 99.00
C 296.22 106.13 297.15 113.94 295.00 121.00
C 288.36 121.58 282.61 118.66 276.00 119.00
C 269.83 118.40 269.35 118.42 270.00 113.00
C 269.97 109.21 271.68 105.94 271.00 102.00
C 264.90 101.64 259.25 99.69 253.00 100.00
C 254.79 110.79 248.72 116.34 239.67 112.33 C 230.62 108.32 223.75 114.32 217.75 118.75 C 211.75 123.18 205.87 126.27 203.00 132.00
C 200.24 141.90 201.03 152.88 199.00 163.00
C 201.27 163.59 202.90 162.15 205.00 162.00
C 213.33 160.64 221.30 160.97 229.00 163.00
C 242.02 166.43 253.61 177.08 258.00 190.00
C 260.46 189.70 259.18 186.69 261.00 186.00
C 274.06 159.98 297.48 139.46 329.00 145.00
C 340.15 146.96 350.95 150.82 360.00 158.00
C 370.80 131.61 352.96 107.86 347.00 83.00
C 343.33 82.76 338.96 82.56 336.00 81.00
C 331.37 80.22 326.51 79.63 322.00 79.00
C 315.10 79.18 308.93 76.60 302.00 77.00
C 300.58 83.25 300.07 89.68 299.00 96.00
M 344.00 123.00 
C 344.82 125.24 345.34 127.67 346.00 130.00
C 336.05 129.83 325.73 128.39 317.00 125.00
C 305.30 121.64 315.05 110.81 313.99 100.99 C 312.94 91.18 331.80 90.75 335.30 97.70 C 338.80 104.64 341.25 115.45 344.00 123.00
M 219.00 140.00 
C 217.65 139.58 215.24 140.26 215.00 138.00
C 216.88 137.32 218.32 135.98 220.00 135.00
C 227.28 130.58 232.74 125.04 242.02 127.98 C 251.31 130.91 260.33 130.89 270.00 132.00
C 269.35 136.99 268.88 142.04 268.00 147.00
C 251.38 145.84 235.56 141.50 219.00 140.00 Z"/>
</g>
<g fill="#EDFDE3" fill-opacity="1.00" stroke="None">
<path d="
M 82.00 80.00 
C 74.50 79.40 75.91 92.10 77.00 97.00 C 78.09 101.90 73.92 115.82 81.93 115.93 C 89.93 116.04 86.57 102.19 87.00 97.00 C 87.43 91.81 90.01 80.64 82.00 80.00
M 85.00 82.00 
C 89.37 85.00 83.77 95.60 86.00 100.00 C 88.23 104.40 85.12 116.56 79.33 112.67 C 73.54 108.78 80.39 99.50 78.00 95.00 C 75.61 90.50 78.45 77.49 85.00 82.00 Z"/>
</g>
<g fill="#ECFCDC" fill-opacity="1.00" stroke="None">
<path d="
M 159.00 113.00 
C 156.82 111.82 157.06 101.23 158.00 98.00 C 158.94 94.77 154.41 86.08 158.78 82.78 C 163.14 79.47 166.14 84.70 166.00 90.00
C 167.63 85.30 166.64 79.66 160.03 80.03 C 153.43 80.40 157.75 92.35 157.00 96.00 C 156.25 99.65 155.79 112.33 159.00 113.00 Z"/>
</g>
<g fill="#E8FADA" fill-opacity="1.00" stroke="None">
<path d="
M 336.00 81.00 
C 338.96 82.56 343.33 82.76 347.00 83.00
C 352.96 107.86 370.80 131.61 360.00 158.00
C 350.95 150.82 340.15 146.96 329.00 145.00
C 339.75 148.77 344.20 150.27 354.25 157.75 C 364.30 165.24 364.87 148.99 366.00 139.00 C 367.13 129.01 360.00 119.35 358.00 110.00 C 356.00 100.65 349.49 91.52 351.00 82.00
C 345.91 82.05 339.99 81.11 336.00 81.00 Z"/>
</g>
<g fill="#B8DB9E" fill-opacity="1.00" stroke="None">
<path d="
M 85.00 82.00 
C 78.45 77.49 75.61 90.50 78.00 95.00 C 80.39 99.50 73.54 108.78 79.33 112.67 C 85.12 116.56 88.23 104.40 86.00 100.00 C 83.77 95.60 89.37 85.00 85.00 82.00
M 85.00 83.00 
C 85.00 92.67 85.00 102.33 85.00 112.00
C 76.52 114.48 78.82 103.44 79.00 98.00 C 79.18 92.56 76.01 80.50 85.00 83.00 Z"/>
</g>
<g fill="#81BC5B" fill-opacity="1.00" stroke="None">
<path d="
M 120.00 82.00 
C 109.82 78.97 113.18 91.81 113.00 98.00 C 112.82 104.19 110.34 115.98 120.00 113.00
C 120.00 102.67 120.00 92.33 120.00 82.00 Z"/>
</g>
<g fill="#B4D89A" fill-opacity="1.00" stroke="None">
<path d="
M 159.00 113.00 
C 159.96 113.20 161.04 112.79 162.00 113.00
C 168.78 112.88 166.00 98.15 166.00 93.00
C 166.00 92.00 165.97 91.00 166.00 90.00
C 166.14 84.70 163.14 79.47 158.78 82.78 C 154.41 86.08 158.94 94.77 158.00 98.00 C 157.06 101.23 156.82 111.82 159.00 113.00
M 165.00 112.00 
C 157.09 114.08 159.07 106.53 159.00 101.00 C 158.93 95.47 159.05 88.65 159.00 83.00
C 171.14 83.82 162.32 103.25 165.00 112.00 Z"/>
</g>
<g fill="#7FB858" fill-opacity="1.00" stroke="None">
<path d="
M 33.00 112.00 
C 35.33 112.00 37.67 112.00 40.00 112.00
C 40.12 106.10 39.85 99.86 40.00 94.00 C 40.15 88.14 41.48 80.41 33.00 83.00
C 33.83 87.31 31.90 93.92 33.00 98.00 C 34.10 102.08 30.74 108.78 33.00 112.00 Z"/>
</g>
<g fill="#7AB852" fill-opacity="1.00" stroke="None">
<path d="
M 85.00 83.00 
C 76.01 80.50 79.18 92.56 79.00 98.00 C 78.82 103.44 76.52 114.48 85.00 112.00
C 85.00 102.33 85.00 92.67 85.00 83.00 Z"/>
</g>
<g fill="#79B951" fill-opacity="1.00" stroke="None">
<path d="
M 165.00 112.00 
C 162.32 103.25 171.14 83.82 159.00 83.00
C 159.05 88.65 158.93 95.47 159.00 101.00 C 159.07 106.53 157.09 114.08 165.00 112.00 Z"/>
</g>
<g fill="#F1FDE8" fill-opacity="1.00" stroke="None">
<path d="
M 162.00 113.00 
C 170.24 114.77 167.22 98.55 166.00 93.00
C 166.00 98.15 168.78 112.88 162.00 113.00 Z"/>
</g>
<g fill="#FAFDF6" fill-opacity="1.00" stroke="None">
<path d="
M 317.00 125.00 
C 320.57 124.99 324.16 123.12 328.00 124.00
C 328.90 129.48 338.62 126.21 343.00 129.00
C 343.47 127.12 341.94 124.07 344.00 123.00
C 341.25 115.45 338.80 104.64 335.30 97.70 C 331.80 90.75 312.94 91.18 313.99 100.99 C 315.05 110.81 305.30 121.64 317.00 125.00 Z"/>
</g>
<g fill="#E7F8D9" fill-opacity="1.00" stroke="None">
<path d="
M 40.00 156.00 
C 46.18 157.61 50.77 161.51 56.00 165.00
C 60.25 152.11 47.42 154.69 40.75 149.25 C 34.09 143.80 32.11 135.27 32.00 127.00
C 41.44 125.89 49.66 130.44 56.00 137.00
C 56.35 129.34 49.32 123.88 50.00 116.00 C 50.68 108.12 53.42 102.57 59.00 97.00
C 65.89 101.82 67.69 108.07 69.00 116.00 C 70.31 123.93 61.65 131.19 64.00 138.00
C 67.79 128.97 78.96 126.60 88.00 127.00
C 88.41 135.43 84.81 143.83 78.25 149.25 C 71.68 154.67 57.82 152.48 64.00 165.00
C 70.49 158.64 78.91 154.97 88.00 155.00
C 88.58 165.02 84.18 174.79 76.00 180.00
C 84.13 177.36 86.91 173.39 89.00 164.00 C 91.09 154.61 85.12 150.44 76.00 154.00
C 83.69 148.15 85.82 145.01 90.00 135.00 C 94.18 124.99 83.65 118.84 74.00 124.00
C 74.51 126.86 71.68 129.76 69.00 130.00
C 73.12 122.56 69.74 114.22 72.00 106.00
C 68.23 110.42 66.35 100.22 65.00 97.00
C 59.99 94.92 55.44 97.64 51.00 101.00
C 48.88 110.82 47.07 120.33 50.00 130.00
C 41.23 121.00 28.16 123.30 31.00 136.00 C 33.84 148.70 38.08 149.68 48.00 155.00
C 45.51 155.64 42.14 155.94 40.00 156.00
M 75.00 155.00 
C 72.64 157.42 64.69 160.74 65.00 155.00
C 68.35 155.93 72.70 153.56 75.00 155.00
M 55.00 162.00 
C 44.51 159.21 56.66 150.10 55.00 162.00 Z"/>
</g>
<g fill="#E3F7D4" fill-opacity="1.00" stroke="None">
<path d="
M 114.00 141.00 
C 112.14 136.83 111.82 131.78 112.00 127.00
C 121.51 125.75 129.41 130.86 136.00 137.00
C 134.92 129.82 129.46 123.92 130.00 116.00 C 130.54 108.08 133.91 103.19 138.00 97.00
C 145.48 100.38 147.14 107.34 148.99 115.01 C 150.84 122.68 140.57 130.96 144.00 138.00
C 144.59 133.71 149.87 132.09 152.00 129.00
C 150.69 129.54 149.56 130.41 148.00 130.00
C 150.20 124.58 149.78 117.26 150.66 111.68 C 151.55 106.10 143.86 106.19 146.00 99.00
C 129.23 89.11 125.44 118.66 130.00 130.00
C 123.58 128.43 120.36 122.30 114.08 124.08 C 107.80 125.87 111.74 137.68 114.00 141.00 Z"/>
</g>
<g fill="#79BE4F" fill-opacity="1.00" stroke="None">
<path d="
M 40.00 156.00 
C 39.19 155.79 37.43 155.09 37.00 155.00
C 35.40 154.67 33.62 155.25 32.00 155.00
C 31.52 166.04 36.49 177.78 47.00 182.00
C 53.96 181.76 58.33 193.50 51.25 188.75 C 44.16 184.01 39.73 185.65 32.00 184.00
C 32.23 187.31 31.70 190.69 32.00 194.00
C 34.51 203.68 46.65 213.01 57.00 212.00
C 59.33 219.87 51.04 238.37 64.00 237.00
C 64.00 228.67 64.00 220.33 64.00 212.00
C 78.43 212.12 89.42 198.01 88.00 184.00
C 79.19 184.28 70.77 186.69 64.00 192.00
C 61.30 183.47 69.90 181.90 76.00 180.00
C 84.18 174.79 88.58 165.02 88.00 155.00
C 78.91 154.97 70.49 158.64 64.00 165.00
C 57.82 152.48 71.68 154.67 78.25 149.25 C 84.81 143.83 88.41 135.43 88.00 127.00
C 78.96 126.60 67.79 128.97 64.00 138.00
C 61.65 131.19 70.31 123.93 69.00 116.00 C 67.69 108.07 65.89 101.82 59.00 97.00
C 53.42 102.57 50.68 108.12 50.00 116.00 C 49.32 123.88 56.35 129.34 56.00 137.00
C 49.66 130.44 41.44 125.89 32.00 127.00
C 32.11 135.27 34.09 143.80 40.75 149.25 C 47.42 154.69 60.25 152.11 56.00 165.00
C 50.77 161.51 46.18 157.61 40.00 156.00 Z"/>
</g>
<g fill="#78BD4E" fill-opacity="1.00" stroke="None">
<path d="
M 114.00 141.00 
C 117.94 144.78 119.47 151.63 126.31 152.69 C 133.14 153.76 139.17 156.59 136.00 166.00
C 130.06 159.31 121.25 155.01 112.00 155.00
C 111.03 163.37 114.37 173.03 120.77 178.23 C 127.17 183.43 140.09 181.40 135.00 193.00
C 128.77 187.09 120.66 184.04 112.00 184.00
C 111.30 189.35 112.92 194.13 114.00 199.00
C 117.46 207.81 125.61 209.53 134.01 211.99 C 142.40 214.45 129.67 239.28 144.00 236.00
C 144.00 228.00 144.00 220.00 144.00 212.00
C 158.75 212.16 169.04 198.20 168.00 184.00
C 158.91 183.60 151.14 187.99 144.00 193.00
C 144.00 189.67 144.00 186.33 144.00 183.00
C 148.34 183.23 152.01 181.07 156.00 180.00
C 163.55 175.52 167.81 164.65 167.00 156.00
C 163.73 155.30 161.23 157.43 158.00 157.00
C 151.80 158.15 147.42 161.30 143.00 166.00
C 143.00 162.33 143.00 158.67 143.00 155.00
C 151.18 154.09 158.36 150.27 164.00 144.00
C 165.54 138.39 168.47 133.15 168.00 127.00
C 162.33 126.26 157.32 128.47 152.00 129.00
C 149.87 132.09 144.59 133.71 144.00 138.00
C 140.57 130.96 150.84 122.68 148.99 115.01 C 147.14 107.34 145.48 100.38 138.00 97.00
C 133.91 103.19 130.54 108.08 130.00 116.00 C 129.46 123.92 134.92 129.82 136.00 137.00
C 129.41 130.86 121.51 125.75 112.00 127.00
C 111.82 131.78 112.14 136.83 114.00 141.00 Z"/>
</g>
<g fill="#EBFADD" fill-opacity="1.00" stroke="None">
<path d="
M 270.00 114.00 
C 269.48 117.81 273.49 118.52 276.00 119.00
C 282.61 118.66 288.36 121.58 295.00 121.00
C 297.15 113.94 296.22 106.13 298.00 99.00
C 295.47 104.99 294.76 112.24 294.00 119.00
C 285.74 118.33 277.82 116.25 270.00 114.00 Z"/>
</g>
<g fill="#B5CAA9" fill-opacity="1.00" stroke="None">
<path d="
M 40.00 112.00 
C 37.67 112.00 35.33 112.00 33.00 112.00
C 34.12 113.60 38.87 113.62 40.00 112.00 Z"/>
</g>
<g fill="#AFD194" fill-opacity="1.00" stroke="None">
<path d="
M 276.00 119.00 
C 273.49 118.52 269.48 117.81 270.00 114.00
C 270.00 114.00 269.99 113.50 270.00 113.00
C 269.35 118.42 269.83 118.40 276.00 119.00 Z"/>
</g>
<g fill="#E3F8D6" fill-opacity="1.00" stroke="None">
<path d="
M 317.00 125.00 
C 325.73 128.39 336.05 129.83 346.00 130.00
C 345.34 127.67 344.82 125.24 344.00 123.00
C 341.94 124.07 343.47 127.12 343.00 129.00
C 338.62 126.21 328.90 129.48 328.00 124.00
C 324.16 123.12 320.57 124.99 317.00 125.00 Z"/>
</g>
<g fill="#F6FCF1" fill-opacity="1.00" stroke="None">
<path d="
M 220.00 135.00 
C 218.76 136.36 217.27 138.38 219.00 140.00
C 235.56 141.50 251.38 145.84 268.00 147.00
C 268.88 142.04 269.35 136.99 270.00 132.00
C 260.33 130.89 251.31 130.91 242.02 127.98 C 232.74 125.04 227.28 130.58 220.00 135.00 Z"/>
</g>
<g fill="#E2F5D0" fill-opacity="1.00" stroke="None">
<path d="
M 205.00 162.00 
C 202.90 162.15 201.27 163.59 199.00 163.00
C 201.03 152.88 200.24 141.90 203.00 132.00
C 198.14 140.66 200.33 152.62 194.00 161.00
C 196.21 161.76 197.03 164.15 198.00 166.00
C 200.41 165.08 202.98 162.72 205.00 162.00 Z"/>
</g>
<g fill="#D2F9AE" fill-opacity="1.00" stroke="None">
<path d="
M 219.00 140.00 
C 217.27 138.38 218.76 136.36 220.00 135.00
C 218.32 135.98 216.88 137.32 215.00 138.00
C 215.24 140.26 217.65 139.58 219.00 140.00 Z"/>
</g>
<g fill="#EBFAE0" fill-opacity="1.00" stroke="None">
<path d="
M 158.00 157.00 
C 160.88 156.13 164.32 154.13 168.00 155.00
C 170.08 164.82 165.43 172.41 159.00 179.00
C 167.85 173.91 170.55 163.17 169.00 153.00
C 165.47 152.52 162.28 153.57 159.00 154.00
C 160.56 150.00 162.67 148.37 164.00 144.00
C 158.36 150.27 151.18 154.09 143.00 155.00
C 143.00 158.67 143.00 162.33 143.00 166.00
C 147.42 161.30 151.80 158.15 158.00 157.00 Z"/>
</g>
<g fill="#E8F8DA" fill-opacity="1.00" stroke="None">
<path d="
M 47.00 182.00 
C 36.49 177.78 31.52 166.04 32.00 155.00
C 33.62 155.25 35.40 154.67 37.00 155.00
C 34.63 148.91 30.15 154.43 31.00 161.00 C 31.85 167.57 32.27 171.34 35.00 177.00
C 39.24 178.79 43.43 180.99 47.00 182.00 Z"/>
</g>
<g fill="#F7FEFB" fill-opacity="1.00" stroke="None">
<path d="
M 75.00 155.00 
C 72.70 153.56 68.35 155.93 65.00 155.00
C 64.69 160.74 72.64 157.42 75.00 155.00 Z"/>
</g>
<g fill="#FBF8F9" fill-opacity="1.00" stroke="None">
<path d="
M 55.00 162.00 
C 56.66 150.10 44.51 159.21 55.00 162.00 Z"/>
</g>
<g fill="#BBDEA6" fill-opacity="1.00" stroke="None">
<path d="
M 158.00 157.00 
C 161.23 157.43 163.73 155.30 167.00 156.00
C 167.81 164.65 163.55 175.52 156.00 180.00
C 156.74 179.58 158.12 179.40 159.00 179.00
C 165.43 172.41 170.08 164.82 168.00 155.00
C 164.32 154.13 160.88 156.13 158.00 157.00 Z"/>
</g>
<g fill="#75BD49" fill-opacity="1.00" stroke="None">
<path d="
M 301.00 160.00 
C 300.59 160.25 299.42 161.63 299.00 162.00
C 294.38 166.07 288.38 169.26 284.00 174.00
C 271.68 189.61 269.22 211.26 279.00 229.00
C 283.20 234.76 288.50 240.53 294.00 245.00
C 320.68 262.21 365.60 248.27 368.00 213.00
C 368.35 207.81 368.28 202.20 368.00 197.00
C 367.11 180.52 351.93 166.44 338.00 160.00
C 325.63 156.55 313.27 155.80 301.00 160.00
M 326.00 183.00 
C 352.25 188.82 343.88 231.18 316.78 225.22 C 289.68 219.26 299.97 177.23 326.00 183.00 Z"/>
</g>
<g fill="#F0FADF" fill-opacity="1.00" stroke="None">
<path d="
M 291.00 167.00 
C 293.67 164.96 296.31 163.58 299.00 162.00
C 299.42 161.63 300.59 160.25 301.00 160.00
C 296.99 161.37 293.65 163.21 291.00 167.00 Z"/>
</g>
<g fill="#E6F8DB" fill-opacity="1.00" stroke="None">
<path d="
M 368.00 197.00 
C 368.84 202.16 368.92 207.89 368.00 213.00
C 365.60 248.27 320.68 262.21 294.00 245.00
C 287.70 240.94 282.57 235.48 279.00 229.00
C 269.22 211.26 271.68 189.61 284.00 174.00
C 285.89 171.61 288.29 169.45 290.00 167.00
C 266.66 181.16 265.46 219.61 283.00 240.00
C 286.96 239.13 290.55 244.13 294.25 246.75 C 297.94 249.37 303.46 250.01 304.00 254.00
C 333.11 262.98 358.10 245.30 368.07 220.07 C 378.05 194.85 363.06 166.99 338.00 160.00
C 351.93 166.44 367.11 180.52 368.00 197.00 Z"/>
</g>
<g fill="#B6D49F" fill-opacity="1.00" stroke="None">
<path d="
M 291.00 167.00 
C 291.00 167.00 290.44 166.84 290.00 167.00
C 288.29 169.45 285.89 171.61 284.00 174.00
C 288.38 169.26 294.38 166.07 299.00 162.00
C 296.31 163.58 293.67 164.96 291.00 167.00 Z"/>
</g>
<g fill="#E8F9DE" fill-opacity="1.00" stroke="None">
<path d="
M 261.00 186.00 
C 259.18 186.69 260.46 189.70 258.00 190.00
C 253.61 177.08 242.02 166.43 229.00 163.00
C 230.29 164.42 232.13 165.63 232.00 168.00
C 245.43 168.16 251.45 181.99 256.00 192.00
C 263.08 193.22 260.98 187.19 261.00 186.00 Z"/>
</g>
<g fill="#78BE4D" fill-opacity="1.00" stroke="None">
<path d="
M 224.00 172.00 
C 197.02 166.79 177.81 192.15 186.08 215.92 C 194.34 239.69 225.52 242.47 240.75 225.75 C 255.98 209.03 246.73 176.39 224.00 172.00
M 220.00 189.00 
C 236.51 192.13 230.43 221.02 213.33 216.67 C 196.23 212.32 201.91 185.57 220.00 189.00 Z"/>
</g>
<g fill="#EAFADB" fill-opacity="1.00" stroke="None">
<path d="
M 114.00 199.00 
C 114.00 200.67 114.00 202.33 114.00 204.00
C 118.90 206.27 122.68 213.56 129.00 213.00 C 135.31 212.45 136.84 222.86 135.00 228.00 C 133.16 233.14 137.89 244.18 144.07 237.07 C 150.25 229.96 141.37 222.46 145.00 215.00
C 158.43 212.67 164.75 208.40 169.02 194.02 C 173.30 179.65 153.85 182.02 145.00 189.00
C 144.84 184.98 150.62 182.13 154.00 184.00
C 152.61 182.67 154.79 180.68 156.00 180.00
C 152.01 181.07 148.34 183.23 144.00 183.00
C 144.00 186.33 144.00 189.67 144.00 193.00
C 151.14 187.99 158.91 183.60 168.00 184.00
C 169.04 198.20 158.75 212.16 144.00 212.00
C 144.00 220.00 144.00 228.00 144.00 236.00
C 129.67 239.28 142.40 214.45 134.01 211.99 C 125.61 209.53 117.46 207.81 114.00 199.00 Z"/>
</g>
<g fill="#F3FBEC" fill-opacity="1.00" stroke="None">
<path d="
M 326.00 183.00 
C 299.97 177.23 289.68 219.26 316.78 225.22 C 343.88 231.18 352.25 188.82 326.00 183.00
M 326.00 192.00 
C 339.89 196.22 332.00 221.00 317.78 215.22 C 303.56 209.44 310.97 187.44 326.00 192.00 Z"/>
</g>
<g fill="#E7F9D8" fill-opacity="1.00" stroke="None">
<path d="
M 32.00 194.00 
C 33.99 198.63 35.10 209.23 41.78 211.22 C 48.45 213.22 58.89 214.61 55.00 225.00 C 51.11 235.39 56.20 240.48 65.00 238.00
C 66.61 233.25 61.97 215.11 67.00 213.00 C 72.03 210.89 81.06 208.58 84.25 204.25 C 87.43 199.91 92.69 187.15 88.00 184.00
C 89.42 198.01 78.43 212.12 64.00 212.00
C 64.00 220.33 64.00 228.67 64.00 237.00
C 51.04 238.37 59.33 219.87 57.00 212.00
C 46.65 213.01 34.51 203.68 32.00 194.00 Z"/>
</g>
<g fill="#F0FAEA" fill-opacity="1.00" stroke="None">
<path d="
M 220.00 189.00 
C 201.91 185.57 196.23 212.32 213.33 216.67 C 230.43 221.02 236.51 192.13 220.00 189.00
M 220.00 196.00 
C 226.97 199.50 219.55 212.13 212.78 207.22 C 206.01 202.31 213.24 192.61 220.00 196.00 Z"/>
</g>
<g fill="#7BBE53" fill-opacity="1.00" stroke="None">
<path d="
M 326.00 192.00 
C 310.97 187.44 303.56 209.44 317.78 215.22 C 332.00 221.00 339.89 196.22 326.00 192.00 Z"/>
</g>
<g fill="#7EBD56" fill-opacity="1.00" stroke="None">
<path d="
M 220.00 196.00 
C 213.24 192.61 206.01 202.31 212.78 207.22 C 219.55 212.13 226.97 199.50 220.00 196.00 Z"/>
</g>
<g fill="#A0BD89" fill-opacity="1.00" stroke="None">
<path d="
M 368.00 213.00 
C 368.92 207.89 368.84 202.16 368.00 197.00
C 368.28 202.20 368.35 207.81 368.00 213.00 Z"/>
</g>
<g fill="#9FC689" fill-opacity="1.00" stroke="None">
<path d="
M 294.00 245.00 
C 288.50 240.53 283.20 234.76 279.00 229.00
C 282.57 235.48 287.70 240.94 294.00 245.00 Z"/>
</g>
<g fill="#EEFCE2" fill-opacity="1.00" stroke="None">
<path d="
M 86.00 258.00 
C 105.19 256.23 123.94 253.00 144.00 253.00
C 162.05 251.25 181.63 253.00 200.00 253.00
C 203.65 252.63 208.51 254.20 211.00 251.00
C 202.79 252.02 193.64 251.63 185.07 250.93 C 176.50 250.22 166.78 249.65 158.00 250.00 C 149.22 250.35 140.16 249.34 132.00 251.00 C 123.84 252.66 113.05 251.86 105.00 252.00 C 96.96 252.14 89.82 256.43 86.00 258.00 Z"/>
</g>
<g fill="#B6DA9C" fill-opacity="1.00" stroke="None">
<path d="
M 144.00 253.00 
C 162.70 253.00 181.67 254.00 200.00 254.00
C 200.00 254.00 200.04 253.00 200.00 253.00
C 181.63 253.00 162.05 251.25 144.00 253.00 Z"/>
</g>
<g fill="#76BD4A" fill-opacity="1.00" stroke="None">
<path d="
M 86.00 258.00 
C 84.68 258.12 83.32 257.87 82.00 258.00
C 68.08 259.37 53.42 263.20 40.00 267.00
C 38.32 267.68 34.51 269.94 34.00 272.00
C 34.00 273.33 34.00 274.67 34.00 276.00
C 34.00 286.56 34.21 296.62 35.00 307.00
C 37.23 318.75 50.60 305.21 59.68 302.68 C 68.75 300.15 79.07 293.49 89.02 291.02 C 98.98 288.56 109.77 283.75 120.22 281.22 C 130.68 278.69 143.43 276.78 154.00 274.00
C 157.38 273.11 161.10 272.45 165.00 272.00
C 169.38 271.50 173.52 271.46 178.00 271.00
C 181.49 270.64 184.51 269.51 188.00 269.00
C 213.93 265.21 240.03 264.00 267.00 264.00
C 268.20 263.85 271.88 262.05 273.00 262.00
C 266.08 260.90 258.43 259.04 252.00 258.00
C 234.50 258.00 217.79 254.00 200.00 254.00
C 181.67 254.00 162.70 253.00 144.00 253.00
C 123.94 253.00 105.19 256.23 86.00 258.00 Z"/>
</g>
<g fill="#EEFBE0" fill-opacity="1.00" stroke="None">
<path d="
M 34.00 270.00 
C 34.87 266.96 37.64 267.67 40.00 267.00
C 53.42 263.20 68.08 259.37 82.00 258.00
C 75.39 257.38 62.39 257.93 55.67 260.67 C 48.96 263.41 33.03 259.94 34.00 270.00 Z"/>
</g>
<g fill="#E7F8D7" fill-opacity="1.00" stroke="None">
<path d="
M 273.00 262.00 
C 275.38 262.38 277.47 263.11 280.00 263.00
C 276.58 265.21 271.18 263.42 267.00 264.00
C 240.03 264.00 213.93 265.21 188.00 269.00
C 207.53 270.80 228.41 264.11 248.00 267.00
C 241.12 266.93 234.77 269.71 229.00 272.00
C 241.62 269.30 255.09 267.34 268.00 266.00 C 280.91 264.67 295.25 260.94 306.00 270.00
C 299.21 276.97 289.29 279.43 281.92 285.92 C 274.55 292.40 267.10 298.14 259.75 304.75 C 252.41 311.36 247.21 318.29 240.75 325.75 C 234.29 333.21 229.54 341.67 224.08 350.08 C 218.63 358.49 214.81 366.82 210.08 376.08 C 205.34 385.33 204.80 400.11 191.00 398.00 C 177.20 395.89 163.76 399.58 150.00 398.00
C 153.85 387.18 162.07 377.99 168.00 368.00
C 163.20 373.39 158.54 375.21 155.32 380.32 C 152.11 385.44 148.35 393.47 149.00 399.00
C 146.84 397.29 143.94 394.25 144.00 400.00
C 154.75 400.01 167.82 398.17 179.00 399.00 C 190.18 399.83 202.34 401.66 206.01 391.01 C 209.67 380.35 212.89 376.27 216.70 366.70 C 220.51 357.13 227.72 352.17 231.25 343.25 C 234.77 334.32 242.14 329.70 247.08 322.08 C 252.02 314.47 262.39 311.64 263.00 303.00
C 266.45 301.82 268.81 302.83 272.00 304.00
C 264.94 298.15 279.36 291.52 285.25 286.25 C 291.15 280.99 302.64 274.19 310.00 272.00
C 307.18 260.36 293.42 266.61 284.02 262.98 C 274.63 259.34 263.04 258.00 252.00 258.00
C 258.43 259.04 266.08 260.90 273.00 262.00 Z"/>
</g>
<g fill="#A8C995" fill-opacity="1.00" stroke="None">
<path d="
M 267.00 264.00 
C 271.18 263.42 276.58 265.21 280.00 263.00
C 277.47 263.11 275.38 262.38 273.00 262.00
C 271.88 262.05 268.20 263.85 267.00 264.00 Z"/>
</g>
<g fill="#76BD49" fill-opacity="1.00" stroke="None">
<path d="
M 229.00 272.00 
C 222.55 274.56 214.92 275.75 208.00 278.00
C 198.47 281.09 188.26 284.74 178.78 288.78 C 169.30 292.81 158.87 296.10 149.78 300.78 C 140.69 305.46 131.82 310.30 122.93 314.93 C 114.04 319.55 105.13 324.51 96.78 329.78 C 88.42 335.04 80.33 340.67 72.25 346.25 C 64.18 351.84 56.19 357.02 48.75 363.75 C 41.32 370.49 54.59 384.07 63.02 384.98 C 71.46 385.88 85.85 396.06 95.00 394.00
C 119.75 368.48 144.91 342.77 174.00 324.00
C 178.36 321.19 183.37 318.37 188.00 316.00
C 196.23 310.41 203.89 304.56 213.00 300.00
C 224.81 294.10 236.63 288.62 249.00 284.00
C 254.42 281.97 259.62 279.94 265.00 278.00
C 270.49 276.02 277.94 271.43 284.00 275.00
C 277.38 276.40 271.21 279.25 265.00 282.00
C 228.49 299.07 188.00 332.48 168.00 368.00
C 162.07 377.99 153.85 387.18 150.00 398.00
C 163.76 399.58 177.20 395.89 191.00 398.00 C 204.80 400.11 205.34 385.33 210.08 376.08 C 214.81 366.82 218.63 358.49 224.08 350.08 C 229.54 341.67 234.29 333.21 240.75 325.75 C 247.21 318.29 252.41 311.36 259.75 304.75 C 267.10 298.14 274.55 292.40 281.92 285.92 C 289.29 279.43 299.21 276.97 306.00 270.00
C 295.25 260.94 280.91 264.67 268.00 266.00 C 255.09 267.34 241.62 269.30 229.00 272.00 Z"/>
</g>
<g fill="#B9DB9C" fill-opacity="1.00" stroke="None">
<path d="
M 34.00 270.00 
C 34.05 270.50 34.00 271.50 34.00 272.00
C 34.51 269.94 38.32 267.68 40.00 267.00
C 37.64 267.67 34.87 266.96 34.00 270.00 Z"/>
</g>
<g fill="#ECFADF" fill-opacity="1.00" stroke="None">
<path d="
M 165.00 272.00 
C 161.68 272.71 157.82 273.39 154.00 274.00
C 143.43 276.78 130.68 278.69 120.22 281.22 C 109.77 283.75 98.98 288.56 89.02 291.02 C 79.07 293.49 68.75 300.15 59.68 302.68 C 50.60 305.21 37.23 318.75 35.00 307.00
C 33.43 298.72 32.47 289.12 33.00 280.00
C 29.59 290.12 34.28 305.27 32.00 314.00
C 48.13 315.56 59.10 302.15 74.33 298.33 C 89.56 294.51 104.19 285.20 121.00 286.00
C 123.70 278.27 133.89 283.31 139.78 279.78 C 145.66 276.25 154.86 277.83 161.00 278.00 C 167.14 278.17 172.29 272.95 178.00 271.00
C 173.52 271.46 169.38 271.50 165.00 272.00 Z"/>
</g>
<g fill="#A1C38F" fill-opacity="1.00" stroke="None">
<path d="
M 154.00 274.00 
C 157.82 273.39 161.68 272.71 165.00 272.00
C 161.10 272.45 157.38 273.11 154.00 274.00 Z"/>
</g>
<g fill="#D4F5C0" fill-opacity="1.00" stroke="None">
<path d="
M 265.00 278.00 
C 267.73 278.75 266.72 280.20 265.00 282.00
C 271.21 279.25 277.38 276.40 284.00 275.00
C 277.94 271.43 270.49 276.02 265.00 278.00 Z"/>
</g>
<g fill="#E8FADA" fill-opacity="1.00" stroke="None">
<path d="
M 318.00 277.00 
C 318.10 278.48 317.18 278.18 317.00 279.00
C 314.36 291.22 313.91 302.73 311.01 315.01 C 308.11 327.28 309.66 340.39 307.00 353.00 C 304.34 365.61 308.65 381.20 306.00 394.00
C 305.74 395.28 306.20 396.71 306.00 398.00
C 290.67 398.00 275.33 398.00 260.00 398.00
C 259.83 395.86 260.11 393.16 262.00 392.00
C 264.73 384.02 267.16 375.17 270.32 367.32 C 273.49 359.47 275.74 350.21 279.92 342.92 C 284.11 335.64 285.68 327.02 290.31 320.31 C 294.93 313.59 296.49 303.56 301.77 297.77 C 307.05 291.98 307.58 280.08 314.00 276.00
C 315.20 275.24 316.88 274.12 318.00 276.00
C 321.19 272.23 310.70 274.10 310.92 278.92 C 311.15 283.75 305.58 286.82 303.00 288.00
C 301.75 295.97 297.07 301.90 293.75 308.75 C 290.44 315.61 285.00 320.67 283.32 328.32 C 281.64 335.98 277.74 342.23 274.33 349.33 C 270.92 356.42 269.59 363.96 266.97 369.97 C 264.36 375.99 264.26 389.31 256.00 386.00
C 255.05 389.49 257.45 390.11 260.00 391.00
C 254.11 403.78 268.30 398.27 277.00 399.00 C 285.70 399.73 297.47 397.70 306.00 400.00
C 308.70 390.04 308.76 377.65 308.00 367.00 C 307.24 356.35 310.56 344.79 311.00 335.00 C 311.44 325.21 314.70 312.39 314.67 303.67 C 314.64 294.96 322.65 283.38 318.00 277.00 Z"/>
</g>
<g fill="#96B088" fill-opacity="1.00" stroke="None">
<path d="
M 314.00 276.00 
C 316.15 275.75 316.90 279.00 317.00 279.00
C 317.18 278.18 318.10 278.48 318.00 277.00
C 318.00 277.00 317.83 276.07 318.00 276.00
C 316.88 274.12 315.20 275.24 314.00 276.00 Z"/>
</g>
<g fill="#98BE80" fill-opacity="1.00" stroke="None">
<path d="
M 33.00 280.00 
C 32.47 289.12 33.43 298.72 35.00 307.00
C 34.21 296.62 34.00 286.56 34.00 276.00
C 33.86 276.92 33.09 278.46 33.00 280.00 Z"/>
</g>
<g fill="#76BD49" fill-opacity="1.00" stroke="None">
<path d="
M 262.00 392.00 
C 261.74 393.71 260.72 395.11 261.00 397.00
C 275.67 397.00 290.33 397.00 305.00 397.00
C 305.11 396.00 304.53 394.27 306.00 394.00
C 308.65 381.20 304.34 365.61 307.00 353.00 C 309.66 340.39 308.11 327.28 311.01 315.01 C 313.91 302.73 314.36 291.22 317.00 279.00
C 316.90 279.00 316.15 275.75 314.00 276.00
C 307.58 280.08 307.05 291.98 301.77 297.77 C 296.49 303.56 294.93 313.59 290.31 320.31 C 285.68 327.02 284.11 335.64 279.92 342.92 C 275.74 350.21 273.49 359.47 270.32 367.32 C 267.16 375.17 264.73 384.02 262.00 392.00 Z"/>
</g>
<g fill="#E5F8D8" fill-opacity="1.00" stroke="None">
<path d="
M 352.00 303.00 
C 353.92 306.08 356.03 309.02 358.00 312.00
C 364.20 319.40 370.19 327.03 376.00 335.00
C 382.15 343.43 380.05 354.94 373.25 361.25 C 366.45 367.56 357.12 378.86 353.07 368.93 C 349.03 358.99 347.97 349.28 344.68 339.32 C 341.39 329.36 338.75 320.03 336.02 309.98 C 333.29 299.92 328.90 290.56 328.00 280.00
C 330.52 281.14 333.08 282.24 336.00 282.00
C 340.17 289.09 345.08 296.74 352.00 302.00
C 344.44 294.76 343.70 278.84 331.22 277.78 C 318.74 276.72 331.07 297.03 333.01 306.99 C 334.95 316.96 340.79 333.13 343.23 343.77 C 345.67 354.41 352.59 366.76 353.00 376.00
C 363.76 377.21 368.19 368.72 375.23 362.23 C 382.27 355.74 383.64 341.86 379.25 333.75 C 374.87 325.63 363.30 321.38 367.00 313.00
C 358.77 315.72 358.77 305.51 352.00 303.00 Z"/>
</g>
<g fill="#EBFBDF" fill-opacity="1.00" stroke="None">
<path d="
M 249.00 284.00 
C 236.63 288.62 224.81 294.10 213.00 300.00
C 205.09 305.21 196.74 311.53 188.00 316.00
C 183.37 318.37 178.36 321.19 174.00 324.00
C 167.42 329.41 160.90 336.01 153.77 340.77 C 146.64 345.53 140.17 352.45 133.30 357.30 C 126.44 362.16 121.00 370.87 114.25 375.25 C 107.50 379.62 102.59 392.29 95.00 394.00
C 85.85 396.06 71.46 385.88 63.02 384.98 C 54.59 384.07 41.32 370.49 48.75 363.75 C 56.19 357.02 64.18 351.84 72.25 346.25 C 80.33 340.67 88.42 335.04 96.78 329.78 C 105.13 324.51 114.04 319.55 122.93 314.93 C 131.82 310.30 140.69 305.46 149.78 300.78 C 158.87 296.10 169.30 292.81 178.78 288.78 C 188.26 284.74 198.47 281.09 208.00 278.00
C 190.65 279.10 173.58 287.51 159.02 294.02 C 144.47 300.54 129.45 307.97 116.08 316.08 C 102.71 324.19 88.38 331.56 76.08 341.08 C 63.79 350.60 48.85 357.44 41.00 369.00
C 46.99 376.25 56.10 382.45 60.00 391.00
C 66.54 387.99 74.32 389.50 80.93 392.07 C 87.54 394.65 94.96 396.08 100.30 391.30 C 105.64 386.52 106.10 381.71 112.77 378.77 C 119.44 375.83 121.33 370.40 126.30 366.30 C 131.27 362.21 134.77 357.80 141.00 356.00
C 142.30 346.75 154.66 344.78 160.08 338.08 C 165.51 331.39 174.42 328.21 180.92 323.92 C 187.41 319.63 194.92 312.30 202.92 308.92 C 210.93 305.55 217.65 295.32 226.00 299.00
C 229.06 293.22 237.03 289.10 243.00 290.00
C 242.65 287.02 247.54 284.82 249.00 284.00 Z"/>
</g>
<g fill="#77BD4A" fill-opacity="1.00" stroke="None">
<path d="
M 376.00 335.00 
C 369.29 327.74 363.42 320.22 358.00 312.00
C 356.03 309.02 353.92 306.08 352.00 303.00
C 352.00 303.00 351.98 302.50 352.00 302.00
C 345.08 296.74 340.17 289.09 336.00 282.00
C 333.08 282.24 330.52 281.14 328.00 280.00
C 328.90 290.56 333.29 299.92 336.02 309.98 C 338.75 320.03 341.39 329.36 344.68 339.32 C 347.97 349.28 349.03 358.99 353.07 368.93 C 357.12 378.86 366.45 367.56 373.25 361.25 C 380.05 354.94 382.15 343.43 376.00 335.00 Z"/>
</g>
<g fill="#CCEEB5" fill-opacity="1.00" stroke="None">
<path d="
M 188.00 316.00 
C 196.74 311.53 205.09 305.21 213.00 300.00
C 203.89 304.56 196.23 310.41 188.00 316.00 Z"/>
</g>
<g fill="#A7CB8D" fill-opacity="1.00" stroke="None">
<path d="
M 376.00 335.00 
C 370.19 327.03 364.20 319.40 358.00 312.00
C 363.42 320.22 369.29 327.74 376.00 335.00 Z"/>
</g>
<g fill="#C0E1A8" fill-opacity="1.00" stroke="None">
<path d="
M 95.00 394.00 
C 102.59 392.29 107.50 379.62 114.25 375.25 C 121.00 370.87 126.44 362.16 133.30 357.30 C 140.17 352.45 146.64 345.53 153.77 340.77 C 160.90 336.01 167.42 329.41 174.00 324.00
C 144.91 342.77 119.75 368.48 95.00 394.00 Z"/>
</g>
<g fill="#A6CE8D" fill-opacity="1.00" stroke="None">
<path d="
M 306.00 394.00 
C 304.53 394.27 305.11 396.00 305.00 397.00
C 290.33 397.00 275.67 397.00 261.00 397.00
C 260.72 395.11 261.74 393.71 262.00 392.00
C 260.11 393.16 259.83 395.86 260.00 398.00
C 275.33 398.00 290.67 398.00 306.00 398.00
C 306.20 396.71 305.74 395.28 306.00 394.00 Z"/>
</g>
</svg>